<svg xmlns="http://www.w3.org/2000/svg" width="12"
                              height="12" class="mr-7" viewBox="0 0 12 12"
                              fill="none">
                              <path
                                d="M3 1C2.73478 1 2.48043 1.10536 2.29289 1.29289C2.10536 1.48043 2 1.73478 2 2V10C2 10.2652 2.10536 10.5196 2.29289 10.7071C2.48043 10.8946 2.73478 11 3 11H9C9.26522 11 9.51957 10.8946 9.70711 10.7071C9.89464 10.5196 10 10.2652 10 10V4L7 1H3ZM3 2H6.5V4.5H9V10H3V2ZM4 6V7H8V6H4ZM4 8V9H6.5V8H4Z"
                                fill="#FFFAF4"></path>
                            </svg>