<svg xmlns="http://www.w3.org/2000/svg" width="18" height="17" viewBox="0 0 18 17" fill="none">
                  <path d="M9 6.40973C8.40326 6.40973 7.83097 6.62524 7.40901 7.00883C6.98705 7.39243 6.75 7.9127 6.75 8.45519C6.75 8.99768 6.98705 9.51795 7.40901 9.90154C7.83097 10.2851 8.40326 10.5006 9 10.5006C9.59674 10.5006 10.169 10.2851 10.591 9.90154C11.0129 9.51795 11.25 8.99768 11.25 8.45519C11.25 7.9127 11.0129 7.39243 10.591 7.00883C10.169 6.62524 9.59674 6.40973 9 6.40973ZM9 11.8643C8.00544 11.8643 7.05161 11.5051 6.34835 10.8658C5.64509 10.2265 5.25 9.35934 5.25 8.45519C5.25 7.55104 5.64509 6.68393 6.34835 6.0446C7.05161 5.40527 8.00544 5.0461 9 5.0461C9.99456 5.0461 10.9484 5.40527 11.6517 6.0446C12.3549 6.68393 12.75 7.55104 12.75 8.45519C12.75 9.35934 12.3549 10.2265 11.6517 10.8658C10.9484 11.5051 9.99456 11.8643 9 11.8643ZM9 3.34155C5.25 3.34155 2.0475 5.46201 0.75 8.45519C2.0475 11.4484 5.25 13.5688 9 13.5688C12.75 13.5688 15.9525 11.4484 17.25 8.45519C15.9525 5.46201 12.75 3.34155 9 3.34155Z" fill="#4B8ADE"></path>
                </svg>