<svg xmlns="http://www.w3.org/2000/svg" width="12" height="12"
                          viewBox="0 0 12 12" fill="none">
                          <g clip-path="url(#clip0_820_18470)">
                            <path
                              d="M6 4C6.53043 4 7.03914 4.21071 7.41421 4.58579C7.78929 4.96086 8 5.46957 8 6C8 6.53043 7.78929 7.03914 7.41421 7.41421C7.03914 7.78929 6.53043 8 6 8C5.46957 8 4.96086 7.78929 4.58579 7.41421C4.21071 7.03914 4 6.53043 4 6C4 5.46957 4.21071 4.96086 4.58579 4.58579C4.96086 4.21071 5.46957 4 6 4ZM1.525 6.5H0.5V5.5H1.525C1.75 3.415 3.415 1.75 5.5 1.525V0.5H6.5V1.525C8.585 1.75 10.25 3.415 10.475 5.5H11.5V6.5H10.475C10.25 8.585 8.585 10.25 6.5 10.475V11.5H5.5V10.475C3.415 10.25 1.75 8.585 1.525 6.5ZM6 2.5C5.07174 2.5 4.1815 2.86875 3.52513 3.52513C2.86875 4.1815 2.5 5.07174 2.5 6C2.5 6.92826 2.86875 7.8185 3.52513 8.47487C4.1815 9.13125 5.07174 9.5 6 9.5C6.92826 9.5 7.8185 9.13125 8.47487 8.47487C9.13125 7.8185 9.5 6.92826 9.5 6C9.5 5.07174 9.13125 4.1815 8.47487 3.52513C7.8185 2.86875 6.92826 2.5 6 2.5Z"
                              fill="#FFFAF4" />
                          </g>
                          <defs>
                            <clipPath id="clip0_820_18470">
                              <rect width="12" height="12" fill="white" />
                            </clipPath>
                          </defs>
                        </svg>