<svg xmlns="http://www.w3.org/2000/svg" width="12" height="12"
                          viewBox="0 0 12 12" fill="none">
                          <path
                            d="M1.5 3H10.5V9H1.5V3ZM6 4.5C6.39782 4.5 6.77936 4.65804 7.06066 4.93934C7.34196 5.22064 7.5 5.60218 7.5 6C7.5 6.39782 7.34196 6.77936 7.06066 7.06066C6.77936 7.34196 6.39782 7.5 6 7.5C5.60218 7.5 5.22064 7.34196 4.93934 7.06066C4.65804 6.77936 4.5 6.39782 4.5 6C4.5 5.60218 4.65804 5.22064 4.93934 4.93934C5.22064 4.65804 5.60218 4.5 6 4.5ZM3.5 4C3.5 4.26522 3.39464 4.51957 3.20711 4.70711C3.01957 4.89464 2.76522 5 2.5 5V7C2.76522 7 3.01957 7.10536 3.20711 7.29289C3.39464 7.48043 3.5 7.73478 3.5 8H8.5C8.5 7.73478 8.60536 7.48043 8.79289 7.29289C8.98043 7.10536 9.23478 7 9.5 7V5C9.23478 5 8.98043 4.89464 8.79289 4.70711C8.60536 4.51957 8.5 4.26522 8.5 4H3.5Z"
                            fill="#FFFAF4" />
                        </svg>