<svg xmlns="http://www.w3.org/2000/svg" width="12"
                              height="12" class="mr-7" viewBox="0 0 12 12"
                              fill="none">
                              <path
                                d="M3.5 3.88V8.125H5.54L5.84 7.67C6.42 6.775 7.465 6.375 8.235 6.375C8.5 6.375 8.725 6.42 8.895 6.5C9.35 6.705 9.475 7.09 9.5 7.37C9.54 7.935 9.25 8.515 8.75 8.855C8.3 9.165 7.22 9.5 5.935 9.5C5.06 9.5 3.805 9.345 2.56 8.65C2.705 7.425 3 5.44 3.5 3.88ZM3.5 1.5C2 3.545 1.5 9.17 1.5 9.17C2.95 10.155 4.54 10.5 5.935 10.5C7.43 10.5 8.695 10.105 9.32 9.68C10.82 8.66 10.97 6.355 9.32 5.59C9 5.445 8.63 5.375 8.235 5.375C7.085 5.375 5.75 5.98 5 7.125H4.5V3.545H5.5L6 2L3.5 1.5Z"
                                fill="#FFFAF4"></path>
                            </svg>