<svg xmlns="http://www.w3.org/2000/svg" class="ml-2" width="18"
                        height="18" viewBox="0 0 18 18" fill="none">
                        <path
                          d="M13.5 12.06C12.93 12.06 12.42 12.285 12.03 12.6375L6.6825 9.525C6.72 9.3525 6.75 9.18 6.75 9C6.75 8.82 6.72 8.6475 6.6825 8.475L11.97 5.3925C12.375 5.7675 12.9075 6 13.5 6C14.0967 6 14.669 5.76295 15.091 5.34099C15.5129 4.91903 15.75 4.34674 15.75 3.75C15.75 3.15326 15.5129 2.58097 15.091 2.15901C14.669 1.73705 14.0967 1.5 13.5 1.5C12.9033 1.5 12.331 1.73705 11.909 2.15901C11.4871 2.58097 11.25 3.15326 11.25 3.75C11.25 3.93 11.28 4.1025 11.3175 4.275L6.03 7.3575C5.625 6.9825 5.0925 6.75 4.5 6.75C3.90326 6.75 3.33097 6.98705 2.90901 7.40901C2.48705 7.83097 2.25 8.40326 2.25 9C2.25 9.59674 2.48705 10.169 2.90901 10.591C3.33097 11.0129 3.90326 11.25 4.5 11.25C5.0925 11.25 5.625 11.0175 6.03 10.6425L11.37 13.755C11.3325 13.9125 11.31 14.0775 11.31 14.25C11.31 15.4575 12.2925 16.4325 13.5 16.4325C14.7075 16.4325 15.69 15.4575 15.69 14.25C15.69 13.6692 15.4593 13.1121 15.0486 12.7014C14.6379 12.2907 14.0808 12.06 13.5 12.06Z"
                          fill="#FFFAF4" />
                      </svg>