<svg xmlns="http://www.w3.org/2000/svg"
                                width="15" height="15" class="ml-7"
                                viewBox="0 0 15 15" fill="none">
                                <path
                                  d="M7.98112 9.79102C8.29054 9.79102 8.58729 9.91393 8.80608 10.1327C9.02487 10.3515 9.14779 10.6483 9.14779 10.9577C9.14779 11.2671 9.02487 11.5638 8.80608 11.7826C8.58729 12.0014 8.29054 12.1243 7.98112 12.1243C7.6717 12.1243 7.37495 12.0014 7.15616 11.7826C6.93737 11.5638 6.81445 11.2671 6.81445 10.9577C6.81445 10.6483 6.93737 10.3515 7.15616 10.1327C7.37495 9.91393 7.6717 9.79102 7.98112 9.79102ZM7.98112 6.29102C8.29054 6.29102 8.58729 6.41393 8.80608 6.63272C9.02487 6.85152 9.14779 7.14826 9.14779 7.45768C9.14779 7.7671 9.02487 8.06385 8.80608 8.28264C8.58729 8.50143 8.29054 8.62435 7.98112 8.62435C7.6717 8.62435 7.37495 8.50143 7.15616 8.28264C6.93737 8.06385 6.81445 7.7671 6.81445 7.45768C6.81445 7.14826 6.93737 6.85152 7.15616 6.63272C7.37495 6.41393 7.6717 6.29102 7.98112 6.29102ZM7.98112 2.79102C8.29054 2.79102 8.58729 2.91393 8.80608 3.13272C9.02487 3.35152 9.14779 3.64826 9.14779 3.95768C9.14779 4.2671 9.02487 4.56385 8.80608 4.78264C8.58729 5.00143 8.29054 5.12435 7.98112 5.12435C7.6717 5.12435 7.37495 5.00143 7.15616 4.78264C6.93737 4.56385 6.81445 4.2671 6.81445 3.95768C6.81445 3.64826 6.93737 3.35152 7.15616 3.13272C7.37495 2.91393 7.6717 2.79102 7.98112 2.79102Z"
                                  fill="#FFFAF4"></path>
                              </svg>