<svg width="12" height="13" viewBox="0 0 12 13" fill="none" xmlns="http://www.w3.org/2000/svg">
<path d="M6 4.5C6.53043 4.5 7.03914 4.71071 7.41421 5.08579C7.78929 5.46086 8 5.96957 8 6.5C8 7.03043 7.78929 7.53914 7.41421 7.91421C7.03914 8.28929 6.53043 8.5 6 8.5C5.46957 8.5 4.96086 8.28929 4.58579 7.91421C4.21071 7.53914 4 7.03043 4 6.5C4 5.96957 4.21071 5.46086 4.58579 5.08579C4.96086 4.71071 5.46957 4.5 6 4.5ZM1.525 7H0.5V6H1.525C1.75 3.915 3.415 2.25 5.5 2.025V1H6.5V2.025C8.585 2.25 10.25 3.915 10.475 6H11.5V7H10.475C10.25 9.085 8.585 10.75 6.5 10.975V12H5.5V10.975C3.415 10.75 1.75 9.085 1.525 7ZM6 3C5.07174 3 4.1815 3.36875 3.52513 4.02513C2.86875 4.6815 2.5 5.57174 2.5 6.5C2.5 7.42826 2.86875 8.3185 3.52513 8.97487C4.1815 9.63125 5.07174 10 6 10C6.92826 10 7.8185 9.63125 8.47487 8.97487C9.13125 8.3185 9.5 7.42826 9.5 6.5C9.5 5.57174 9.13125 4.6815 8.47487 4.02513C7.8185 3.36875 6.92826 3 6 3Z" fill="#1F2E4C"/>
</svg>
