<svg width="12" height="15" viewBox="0 0 12 15" fill="none" xmlns="http://www.w3.org/2000/svg">
<g clip-path="url(#clip0_1_9881)">
<path d="M8.49975 13.0162C8.52775 13.2262 8.45775 13.4502 8.29675 13.5972C8.02375 13.8702 7.58275 13.8702 7.30975 13.5972L4.50275 10.7902C4.34175 10.6292 4.27175 10.4122 4.29975 10.2092V6.6252L0.946754 2.3342C0.708754 2.0332 0.764754 1.5922 1.06575 1.3542C1.19875 1.2562 1.34575 1.2002 1.49975 1.2002H11.2998C11.4538 1.2002 11.6008 1.2562 11.7338 1.3542C12.0348 1.5922 12.0908 2.0332 11.8528 2.3342L8.49975 6.6252V13.0162ZM2.92775 2.6002L5.69975 6.1422V10.0062L7.09975 11.4062V6.1352L9.87175 2.6002H2.92775Z" fill="#1F2E4C"/>
</g>
<defs>
<clipPath id="clip0_1_9881">
<rect width="11.2019" height="14" fill="white" transform="translate(0.798828 0.5)"/>
</clipPath>
</defs>
</svg>
