<svg width="1000" height="285" viewBox="0 0 1000 285" fill="none" xmlns="http://www.w3.org/2000/svg">
<g filter="url(#filter0_di_7_31796)">
<rect y="117.057" width="215.038" height="102.279" rx="51.1393" transform="rotate(-32.9805 0 117.057)" fill="#EE7272"/>
</g>
<g filter="url(#filter1_i_7_31796)">
<path d="M136.53 132.257C119.166 113.542 109.824 100.727 96.1012 69.9367C95.9011 69.4877 96.0535 68.9503 96.4658 68.6827L98.9561 67.0667C99.3648 66.8015 99.9115 66.8761 100.241 67.2349C121.028 89.864 129.428 103.948 140.675 129.552C140.872 130.001 140.718 130.532 140.307 130.799L137.81 132.419C137.403 132.684 136.86 132.613 136.53 132.257Z" fill="#D26060"/>
</g>
<path d="M920.595 68.501C923.249 68.501 925.255 69.4393 926.614 71.3161C928.038 73.1281 928.749 75.2637 928.749 77.7229V86.6535C933.862 81.9294 939.492 77.7229 945.64 74.0341C951.788 70.3454 957.871 68.501 963.89 68.501C970.167 68.501 975.377 70.0541 979.518 73.1605C983.66 76.2668 986.767 80.3115 988.837 85.2945C990.973 90.2776 992.041 95.6489 992.041 101.409V141.791C992.041 143.603 992.106 145.382 992.235 147.13C992.429 148.877 993.141 150.527 994.371 152.08C995.859 153.957 997.153 155.413 998.253 156.449C999.418 157.484 1000 159.393 1000 162.176C1000 165.023 999.127 167.224 997.38 168.777C995.632 170.265 993.367 171.01 990.585 171.01H950.008C947.29 171.01 945.187 170.201 943.699 168.583C942.275 166.965 941.563 164.829 941.563 162.176C941.563 159.717 942.113 157.808 943.213 156.449C944.378 155.025 945.511 153.569 946.611 152.08C947.776 150.527 948.358 148.359 948.358 145.577V111.892C948.358 108.851 947.743 105.874 946.514 102.962C945.349 100.05 942.89 98.5935 939.136 98.5935C936.871 98.5935 934.93 99.0465 933.312 99.9525C931.694 100.794 930.173 101.894 928.749 103.253V142.956C928.749 144.703 928.814 146.483 928.944 148.295C929.073 150.042 929.72 151.66 930.885 153.148C932.244 154.766 933.377 156.093 934.283 157.128C935.189 158.099 935.642 159.782 935.642 162.176C935.642 164.829 934.897 166.965 933.409 168.583C931.985 170.201 929.914 171.01 927.196 171.01H886.62C883.837 171.01 881.572 170.265 879.825 168.777C878.078 167.224 877.204 165.023 877.204 162.176C877.204 160.04 877.592 158.39 878.369 157.225C879.21 155.996 880.148 154.863 881.184 153.828C882.219 152.792 883.125 151.53 883.902 150.042C884.743 148.554 885.164 146.515 885.164 143.926V107.912C885.164 105 884.711 102.8 883.805 101.312C882.899 99.8231 881.831 98.6582 880.601 97.8169C879.372 96.9109 878.304 95.9402 877.398 94.9047C876.492 93.8693 876.039 92.3161 876.039 90.2452C876.039 87.7213 876.88 85.7475 878.563 84.3238C880.246 82.8354 882.122 81.6705 884.193 80.8292L905.161 72.3839C907.62 71.3484 910.112 70.4424 912.635 69.6658C915.224 68.8893 917.877 68.501 920.595 68.501Z" fill="#FFED30"/>
<path d="M867.104 106.845C867.104 112.604 865.389 116.973 861.959 119.949C858.594 122.926 854.128 124.415 848.563 124.415H809.443C810.931 129.98 813.584 134.672 817.402 138.49C821.221 142.244 826.721 144.121 833.905 144.121C836.752 144.121 839.567 143.538 842.35 142.373C845.198 141.144 847.851 139.72 850.31 138.102C852.834 136.484 855.034 135.093 856.911 133.928C858.788 132.698 860.212 132.084 861.182 132.084C863.059 132.084 864.418 132.763 865.259 134.122C866.101 135.416 866.521 136.905 866.521 138.587C866.521 144.476 865.13 149.654 862.347 154.119C859.629 158.52 856.005 162.176 851.475 165.088C847.01 168 842.091 170.168 836.72 171.592C831.413 173.081 826.171 173.825 820.994 173.825C810.834 173.825 801.871 171.722 794.105 167.515C786.339 163.309 780.256 157.419 775.855 149.848C771.52 142.211 769.352 133.248 769.352 122.959C769.352 111.957 771.455 102.379 775.661 94.2252C779.932 86.0711 786.048 79.7614 794.008 75.2961C801.968 70.766 811.513 68.501 822.644 68.501C830.346 68.501 837.561 69.9571 844.292 72.8692C851.087 75.7814 856.587 80.085 860.794 85.7799C865 91.4748 867.104 98.4964 867.104 106.845ZM807.695 109.466C807.695 110.177 807.695 110.889 807.695 111.601H817.791C820.25 111.601 821.933 111.051 822.839 109.951C823.745 108.786 824.198 107.039 824.198 104.709C824.198 103.156 824.003 101.117 823.615 98.5935C823.227 96.0696 822.45 93.8046 821.285 91.7984C820.185 89.7922 818.567 88.7891 816.432 88.7891C814.49 88.7891 812.937 89.5981 811.772 91.216C810.607 92.7691 809.734 94.7429 809.151 97.1374C808.569 99.4671 808.181 101.765 807.986 104.03C807.792 106.295 807.695 108.107 807.695 109.466Z" fill="#FFED30"/>
<path d="M744.01 97.2342V141.79C744.01 146.385 744.625 149.233 745.855 150.333C747.149 151.368 749.964 152.145 754.3 152.663C757.73 153.116 760.448 153.763 762.454 154.604C764.46 155.445 765.463 157.969 765.463 162.176C765.463 165.088 764.59 167.288 762.842 168.777C761.095 170.265 758.798 171.009 755.95 171.009H696.251C693.533 171.009 691.268 170.297 689.456 168.874C687.708 167.385 686.835 165.217 686.835 162.37C686.835 159.069 687.514 156.804 688.873 155.575C690.232 154.345 691.785 153.407 693.533 152.76C695.345 152.048 696.93 150.948 698.289 149.459C699.648 147.971 700.328 145.285 700.328 141.402V103.932C700.328 101.538 699.486 99.758 697.804 98.5932C696.186 97.4283 694.309 96.3929 692.174 95.4869C690.038 94.5161 688.129 93.2865 686.446 91.7981C684.828 90.2449 684.02 87.9476 684.02 84.9059C684.02 82.2526 684.893 80.2465 686.64 78.8874C688.388 77.4637 690.491 76.7518 692.95 76.7518H700.619V75.684C700.619 75.1016 699.648 74.0338 697.707 72.4807C695.83 70.9275 693.921 68.9213 691.979 66.4622C690.038 64.003 689.067 61.2202 689.067 58.1139C689.067 52.3543 690.329 47.5006 692.853 43.553C695.442 39.5407 698.807 36.3373 702.949 33.9428C707.155 31.4837 711.75 29.704 716.733 28.6038C721.716 27.5037 726.634 26.9536 731.488 26.9536C735.889 26.9536 740.419 27.4713 745.078 28.5068C749.738 29.5422 754.074 31.1924 758.086 33.4575C762.163 35.6578 765.431 38.6023 767.89 42.2911C770.414 45.9151 771.676 50.3481 771.676 55.59C771.676 60.8967 770.188 65.1031 767.211 68.2095C764.234 71.3158 760.06 72.8689 754.688 72.8689C749.058 72.8689 744.528 71.2187 741.098 67.9182C737.733 64.6178 736.05 60.1201 736.05 54.4252C736.05 52.4837 735.953 50.5746 735.759 48.6979C735.63 46.7564 735.047 45.1709 734.012 43.9413C732.976 42.647 731.164 41.9999 728.576 41.9999C725.923 41.9999 724.143 42.9059 723.237 44.7179C722.396 46.4652 721.975 48.4714 721.975 50.7364C721.975 53.325 722.881 55.6547 724.693 57.7256C726.57 59.7965 728.705 61.7703 731.1 63.647C733.559 65.5238 735.695 67.4652 737.507 69.4714C739.383 71.4129 740.322 73.5485 740.322 75.8782V76.7518H758.086C760.48 76.7518 762.551 77.3666 764.299 78.5962C766.046 79.7611 766.92 81.6702 766.92 84.3235C766.92 88.2711 765.625 91.1833 763.037 93.06C760.448 94.8721 757.374 96.0369 753.815 96.5547C750.255 97.0077 746.987 97.2342 744.01 97.2342Z" fill="#FFED30"/>
<path d="M663.145 68.5008C665.798 68.5008 667.837 69.4068 669.261 71.2189C670.749 73.0309 671.493 75.1988 671.493 77.7227V141.791C671.493 143.603 671.558 145.447 671.687 147.324C671.882 149.136 672.626 150.721 673.92 152.08C675.603 153.892 676.994 155.316 678.094 156.352C679.259 157.387 679.841 159.328 679.841 162.176C679.841 165.023 678.935 167.224 677.123 168.777C675.376 170.265 673.111 171.009 670.328 171.009H629.073C626.29 171.009 623.992 170.265 622.18 168.777C620.433 167.288 619.559 165.088 619.559 162.176C619.559 159.393 620.109 157.452 621.21 156.352C622.31 155.187 623.734 153.763 625.481 152.08C626.775 150.786 627.487 149.168 627.616 147.227C627.811 145.285 627.908 143.473 627.908 141.791V107.912C627.908 106.618 627.811 105.291 627.616 103.932C627.422 102.509 626.872 101.311 625.966 100.341C625.707 100.017 625.384 99.7582 624.995 99.5641C624.672 99.3699 624.381 99.1434 624.122 98.8845C622.698 97.3961 621.371 96.1989 620.142 95.2929C618.977 94.3221 618.395 92.6395 618.395 90.2451C618.395 87.6565 619.203 85.6503 620.821 84.2266C622.439 82.8029 624.348 81.6703 626.549 80.829L647.516 72.3837C649.975 71.413 652.532 70.5393 655.185 69.7628C657.838 68.9215 660.492 68.5008 663.145 68.5008ZM648.584 68.1125C644.442 68.1125 640.268 67.4977 636.062 66.2682C631.855 65.0386 628.328 63 625.481 60.1526C622.698 57.2404 621.307 53.3251 621.307 48.4068C621.307 43.4885 622.73 39.6379 625.578 36.8552C628.425 34.0077 631.952 32.0015 636.159 30.8367C640.365 29.6718 644.507 29.0894 648.584 29.0894C652.661 29.0894 656.803 29.6718 661.009 30.8367C665.281 32.0015 668.84 34.0077 671.687 36.8552C674.6 39.6379 676.056 43.4885 676.056 48.4068C676.056 53.3899 674.632 57.3375 671.784 60.2497C668.937 63.0971 665.378 65.1356 661.106 66.3652C656.9 67.5301 652.726 68.1125 648.584 68.1125Z" fill="#FFED30"/>
<path d="M615.589 178.775C615.589 184.146 613.906 188.644 610.541 192.268C607.176 195.957 602.807 198.934 597.436 201.199C592.129 203.464 586.402 205.179 580.254 206.343C574.171 207.508 568.282 208.285 562.587 208.673C556.957 209.126 552.233 209.353 548.414 209.353C545.826 209.353 542.525 209.256 538.513 209.061C534.565 208.932 530.424 208.544 526.088 207.897C521.752 207.249 517.675 206.214 513.857 204.79C510.103 203.431 507.029 201.522 504.635 199.063C502.24 196.604 501.043 193.497 501.043 189.744C501.043 185.084 502.855 181.428 506.479 178.775C510.103 176.186 514.471 174.245 519.584 172.95C517.254 172.044 515.313 170.75 513.759 169.068C512.206 167.32 511.43 164.99 511.43 162.078C511.43 158.195 512.659 155.089 515.118 152.759C517.642 150.43 520.813 148.682 524.632 147.517C528.515 146.288 532.462 145.414 536.474 144.896C530.715 143.537 525.311 141.467 520.263 138.684C515.28 135.901 511.236 132.18 508.129 127.52C505.088 122.861 503.567 117.101 503.567 110.242C503.567 102.864 504.991 96.619 507.838 91.5065C510.75 86.3293 514.633 82.1552 519.487 78.9841C524.34 75.7484 529.776 73.3539 535.795 71.8008C541.878 70.1829 548.091 69.2769 554.433 69.0827C556.439 63.7761 558.834 58.4695 561.616 53.1628C564.464 47.8562 568.055 43.4232 572.391 39.8639C576.792 36.3046 582.228 34.5249 588.7 34.5249C594.006 34.5249 598.374 36.0781 601.804 39.1844C605.299 42.2907 607.046 46.5619 607.046 51.998C607.046 56.3986 605.946 60.4109 603.746 64.035C601.61 67.5943 598.051 69.374 593.068 69.374C589.573 69.374 586.888 68.5003 585.011 66.753C583.134 64.941 581.516 63.129 580.157 61.3169C578.798 59.5049 577.18 58.5989 575.304 58.5989C573.297 58.5989 571.582 59.8608 570.159 62.3847C568.735 64.8439 567.602 67.206 566.761 69.471C573.686 70.3123 580.254 72.1891 586.467 75.1012C592.679 77.9487 597.727 81.9934 601.61 87.2353C605.558 92.4772 607.532 99.0782 607.532 107.038C607.532 114.092 606.076 120.175 603.163 125.288C600.316 130.336 596.465 134.477 591.612 137.713C586.823 140.949 581.419 143.343 575.401 144.896C569.447 146.385 563.364 147.129 557.151 147.129C555.145 147.129 553.171 147.064 551.23 146.935C550.453 147.712 550.065 148.488 550.065 149.265C550.065 150.559 551.003 151.497 552.88 152.08C554.821 152.598 557.119 152.921 559.772 153.051C562.425 153.18 564.917 153.212 567.246 153.148C569.641 153.083 571.291 153.051 572.197 153.051C576.857 153.051 581.71 153.277 586.758 153.73C591.806 154.118 596.498 155.121 600.834 156.739C605.234 158.357 608.794 160.913 611.512 164.408C614.23 167.838 615.589 172.627 615.589 178.775ZM552.783 83.9348C550.906 83.9348 549.579 84.7114 548.803 86.2646C548.026 87.8178 547.541 89.5974 547.347 91.6036C547.217 93.6097 547.152 95.26 547.152 96.5543C547.152 98.3016 547.25 101.117 547.444 105C547.703 108.818 548.188 112.83 548.9 117.037C549.612 121.243 550.679 124.835 552.103 127.812C553.592 130.724 555.598 132.18 558.122 132.18C560.128 132.18 561.552 131.468 562.393 130.044C563.234 128.556 563.72 126.841 563.849 124.899C564.043 122.958 564.14 121.275 564.14 119.852C564.14 117.975 564.043 115.095 563.849 111.212C563.655 107.265 563.202 103.22 562.49 99.0782C561.843 94.8717 560.743 91.3124 559.189 88.4002C557.636 85.4233 555.501 83.9348 552.783 83.9348ZM535.892 181.978C535.892 183.984 536.863 185.57 538.804 186.735C540.81 187.9 543.205 188.773 545.988 189.356C548.835 189.938 551.553 190.294 554.142 190.423C556.73 190.618 558.639 190.715 559.869 190.715C561.293 190.715 563.428 190.488 566.276 190.035C569.188 189.647 571.874 188.903 574.333 187.803C576.792 186.702 578.022 185.117 578.022 183.046C578.022 180.134 576.792 178.095 574.333 176.93C571.938 175.766 569.22 175.086 566.179 174.892C563.137 174.698 560.613 174.601 558.607 174.601C555.63 174.601 552.653 174.665 549.676 174.795C546.699 174.924 543.723 175.021 540.746 175.086C539.387 176.057 538.222 177.125 537.251 178.289C536.345 179.454 535.892 180.684 535.892 181.978Z" fill="#FFED30"/>
<path d="M477.356 68.5008C480.009 68.5008 482.048 69.4068 483.472 71.2189C484.96 73.0309 485.704 75.1988 485.704 77.7227V141.791C485.704 143.603 485.769 145.447 485.898 147.324C486.092 149.136 486.837 150.721 488.131 152.08C489.814 153.892 491.205 155.316 492.305 156.352C493.47 157.387 494.052 159.328 494.052 162.176C494.052 165.023 493.146 167.224 491.334 168.777C489.587 170.265 487.322 171.009 484.539 171.009H443.283C440.501 171.009 438.203 170.265 436.391 168.777C434.644 167.288 433.77 165.088 433.77 162.176C433.77 159.393 434.32 157.452 435.421 156.352C436.521 155.187 437.944 153.763 439.692 152.08C440.986 150.786 441.698 149.168 441.827 147.227C442.022 145.285 442.119 143.473 442.119 141.791V107.912C442.119 106.618 442.022 105.291 441.827 103.932C441.633 102.509 441.083 101.311 440.177 100.341C439.918 100.017 439.595 99.7582 439.206 99.5641C438.883 99.3699 438.592 99.1434 438.333 98.8845C436.909 97.3961 435.582 96.1989 434.353 95.2929C433.188 94.3221 432.605 92.6395 432.605 90.2451C432.605 87.6565 433.414 85.6503 435.032 84.2266C436.65 82.8029 438.559 81.6703 440.76 80.829L461.727 72.3837C464.186 71.413 466.743 70.5393 469.396 69.7628C472.049 68.9215 474.703 68.5008 477.356 68.5008ZM462.795 68.1125C458.653 68.1125 454.479 67.4977 450.273 66.2682C446.066 65.0386 442.539 63 439.692 60.1526C436.909 57.2404 435.518 53.3251 435.518 48.4068C435.518 43.4885 436.941 39.6379 439.789 36.8552C442.636 34.0077 446.163 32.0015 450.37 30.8367C454.576 29.6718 458.718 29.0894 462.795 29.0894C466.872 29.0894 471.014 29.6718 475.22 30.8367C479.492 32.0015 483.051 34.0077 485.898 36.8552C488.81 39.6379 490.267 43.4885 490.267 48.4068C490.267 53.3899 488.843 57.3375 485.995 60.2497C483.148 63.0971 479.589 65.1356 475.317 66.3652C471.111 67.5301 466.937 68.1125 462.795 68.1125Z" fill="#FFED30"/>
<path d="M275.928 160.429C275.928 157.064 276.607 154.572 277.966 152.954C279.325 151.336 280.911 150.01 282.723 148.974C284.535 147.939 286.12 146.774 287.479 145.48C288.838 144.121 289.518 142.05 289.518 139.267V68.4039C289.518 65.5564 288.838 63.4532 287.479 62.0942C286.12 60.7351 284.535 59.5703 282.723 58.5995C280.911 57.5641 279.325 56.2374 277.966 54.6196C276.607 53.0017 275.928 50.5425 275.928 47.242C275.928 43.618 276.996 40.9647 279.131 39.2821C281.331 37.5348 284.147 36.6611 287.576 36.6611H345.432C359.928 36.6611 372.936 39.6057 384.455 45.4947C395.974 51.3191 405.067 59.635 411.732 70.4424C418.463 81.2498 421.828 94.1281 421.828 109.077C421.828 121.956 418.819 133.022 412.8 142.276C406.782 151.53 398.692 158.649 388.532 163.632C378.372 168.55 367.111 171.01 354.751 171.01H287.576C284.082 171.01 281.267 170.168 279.131 168.486C276.996 166.803 275.928 164.117 275.928 160.429ZM350.188 149.362C354.977 149.362 358.86 147.906 361.837 144.994C364.814 142.082 367.079 138.426 368.632 134.025C370.25 129.624 371.35 125.062 371.933 120.338C372.515 115.614 372.806 111.472 372.806 107.912C372.806 102.929 372.353 97.5904 371.447 91.8954C370.541 86.1358 368.923 80.7321 366.594 75.6843C364.329 70.5718 361.157 66.3977 357.08 63.162C353.068 59.9262 347.891 58.3083 341.549 58.3083H337.278V134.219C337.278 138.62 338.184 142.244 339.996 145.091C341.872 147.939 345.27 149.362 350.188 149.362Z" fill="#FFED30"/>
<path d="M859.988 239.688V274.389H854.922V239.688H859.988Z" fill="#FFFAF4"/>
<path d="M848.105 239.688V274.389H843.039V239.688H848.105Z" fill="#FFFAF4"/>
<path d="M831.148 274.389V248.363H836.214V274.389H831.148ZM833.706 244.348C832.825 244.348 832.068 244.054 831.436 243.467C830.815 242.868 830.504 242.156 830.504 241.332C830.504 240.496 830.815 239.784 831.436 239.197C832.068 238.598 832.825 238.299 833.706 238.299C834.587 238.299 835.338 238.598 835.96 239.197C836.592 239.784 836.909 240.496 836.909 241.332C836.909 242.156 836.592 242.868 835.96 243.467C835.338 244.054 834.587 244.348 833.706 244.348Z" fill="#FFFAF4"/>
<path d="M801.711 284.147V248.362H806.658V252.581H807.082C807.376 252.039 807.799 251.412 808.353 250.701C808.906 249.989 809.674 249.368 810.657 248.837C811.64 248.295 812.939 248.023 814.554 248.023C816.655 248.023 818.53 248.554 820.179 249.616C821.829 250.678 823.122 252.209 824.06 254.208C825.008 256.207 825.483 258.613 825.483 261.426C825.483 264.238 825.014 266.65 824.076 268.661C823.139 270.66 821.851 272.202 820.213 273.286C818.575 274.359 816.706 274.896 814.605 274.896C813.024 274.896 811.73 274.631 810.725 274.1C809.731 273.569 808.951 272.947 808.387 272.236C807.822 271.524 807.387 270.892 807.082 270.338H806.777V284.147H801.711ZM806.675 261.375C806.675 263.205 806.941 264.809 807.472 266.187C808.003 267.565 808.771 268.644 809.776 269.423C810.781 270.191 812.013 270.575 813.47 270.575C814.983 270.575 816.249 270.174 817.265 269.372C818.282 268.559 819.05 267.458 819.569 266.068C820.1 264.679 820.366 263.115 820.366 261.375C820.366 259.658 820.106 258.116 819.586 256.749C819.078 255.383 818.31 254.304 817.282 253.513C816.265 252.722 814.995 252.327 813.47 252.327C812.001 252.327 810.759 252.706 809.742 253.462C808.737 254.219 807.974 255.275 807.455 256.631C806.935 257.986 806.675 259.568 806.675 261.375Z" fill="#FFFAF4"/>
<path d="M772.296 274.913C769.732 274.913 767.523 274.365 765.671 273.269C763.83 272.162 762.407 270.609 761.401 268.61C760.407 266.599 759.91 264.244 759.91 261.544C759.91 258.879 760.407 256.529 761.401 254.496C762.407 252.463 763.807 250.876 765.603 249.735C767.411 248.594 769.523 248.023 771.94 248.023C773.409 248.023 774.832 248.266 776.21 248.752C777.588 249.238 778.825 250 779.921 251.039C781.016 252.079 781.88 253.428 782.513 255.089C783.145 256.738 783.462 258.743 783.462 261.104V262.9H762.774V259.105H778.497C778.497 257.772 778.226 256.591 777.684 255.563C777.142 254.524 776.379 253.705 775.397 253.107C774.425 252.508 773.284 252.209 771.974 252.209C770.551 252.209 769.308 252.559 768.246 253.259C767.196 253.948 766.383 254.852 765.807 255.97C765.242 257.077 764.959 258.28 764.959 259.579V262.544C764.959 264.284 765.264 265.763 765.874 266.983C766.496 268.203 767.36 269.135 768.467 269.779C769.574 270.412 770.867 270.728 772.347 270.728C773.307 270.728 774.182 270.592 774.973 270.321C775.764 270.039 776.447 269.621 777.023 269.067C777.599 268.514 778.04 267.83 778.345 267.017L783.14 267.881C782.756 269.293 782.067 270.53 781.073 271.592C780.09 272.642 778.853 273.461 777.362 274.049C775.882 274.625 774.194 274.913 772.296 274.913Z" fill="#FFFAF4"/>
<path d="M737.437 258.936V274.389H732.371V239.688H737.369V252.599H737.691C738.301 251.199 739.233 250.086 740.487 249.262C741.741 248.437 743.379 248.025 745.401 248.025C747.185 248.025 748.744 248.392 750.077 249.126C751.421 249.86 752.461 250.956 753.195 252.413C753.94 253.859 754.313 255.666 754.313 257.835V274.389H749.247V258.445C749.247 256.536 748.756 255.056 747.773 254.006C746.79 252.944 745.423 252.413 743.672 252.413C742.475 252.413 741.402 252.667 740.453 253.176C739.516 253.684 738.776 254.429 738.234 255.412C737.703 256.384 737.437 257.558 737.437 258.936Z" fill="#FFFAF4"/>
<path d="M726.212 248.362V252.429H711.996V248.362H726.212ZM715.808 242.127H720.875V266.746C720.875 267.729 721.021 268.469 721.315 268.966C721.609 269.451 721.987 269.785 722.45 269.965C722.925 270.135 723.439 270.219 723.992 270.219C724.399 270.219 724.755 270.191 725.06 270.135C725.365 270.078 725.602 270.033 725.771 269.999L726.686 274.184C726.392 274.297 725.975 274.41 725.432 274.523C724.89 274.647 724.212 274.715 723.399 274.726C722.066 274.749 720.824 274.512 719.672 274.015C718.519 273.518 717.587 272.75 716.876 271.71C716.164 270.671 715.808 269.367 715.808 267.796V242.127Z" fill="#FFFAF4"/>
<path d="M667.701 274.389L660.043 248.364H665.279L670.379 267.476H670.633L675.75 248.364H680.985L686.068 267.391H686.322L691.389 248.364H696.624L688.983 274.389H683.815L678.528 255.599H678.139L672.852 274.389H667.701Z" fill="#FFFAF4"/>
<path d="M645.073 274.913C642.633 274.913 640.504 274.354 638.685 273.235C636.867 272.117 635.455 270.553 634.449 268.542C633.444 266.531 632.941 264.182 632.941 261.494C632.941 258.794 633.444 256.433 634.449 254.411C635.455 252.389 636.867 250.819 638.685 249.701C640.504 248.583 642.633 248.023 645.073 248.023C647.513 248.023 649.642 248.583 651.461 249.701C653.279 250.819 654.691 252.389 655.697 254.411C656.702 256.433 657.205 258.794 657.205 261.494C657.205 264.182 656.702 266.531 655.697 268.542C654.691 270.553 653.279 272.117 651.461 273.235C649.642 274.354 647.513 274.913 645.073 274.913ZM645.09 270.66C646.671 270.66 647.982 270.242 649.021 269.406C650.06 268.57 650.828 267.458 651.325 266.068C651.834 264.679 652.088 263.148 652.088 261.477C652.088 259.816 651.834 258.291 651.325 256.902C650.828 255.501 650.06 254.377 649.021 253.53C647.982 252.683 646.671 252.259 645.09 252.259C643.497 252.259 642.176 252.683 641.125 253.53C640.086 254.377 639.312 255.501 638.804 256.902C638.307 258.291 638.058 259.816 638.058 261.477C638.058 263.148 638.307 264.679 638.804 266.068C639.312 267.458 640.086 268.57 641.125 269.406C642.176 270.242 643.497 270.66 645.09 270.66Z" fill="#FFFAF4"/>
<path d="M627.289 239.688V274.389H622.223V239.688H627.289Z" fill="#FFFAF4"/>
<path d="M615.406 239.688V274.389H610.34V239.688H615.406Z" fill="#FFFAF4"/>
<path d="M590.743 274.964C589.094 274.964 587.603 274.659 586.27 274.049C584.937 273.428 583.881 272.53 583.101 271.355C582.333 270.18 581.949 268.74 581.949 267.034C581.949 265.566 582.232 264.357 582.796 263.408C583.361 262.459 584.124 261.708 585.084 261.155C586.044 260.601 587.117 260.183 588.303 259.901C589.489 259.618 590.698 259.404 591.929 259.257C593.488 259.076 594.753 258.929 595.724 258.816C596.696 258.692 597.402 258.495 597.842 258.223C598.283 257.952 598.503 257.512 598.503 256.902V256.783C598.503 255.304 598.085 254.157 597.249 253.344C596.425 252.53 595.193 252.124 593.556 252.124C591.85 252.124 590.506 252.502 589.523 253.259C588.552 254.005 587.879 254.835 587.507 255.75L582.746 254.665C583.31 253.084 584.135 251.808 585.219 250.836C586.315 249.853 587.574 249.142 588.998 248.701C590.421 248.249 591.918 248.023 593.488 248.023C594.527 248.023 595.628 248.148 596.792 248.396C597.967 248.633 599.062 249.074 600.079 249.718C601.107 250.362 601.948 251.282 602.603 252.48C603.259 253.666 603.586 255.208 603.586 257.105V274.388H598.639V270.829H598.435C598.108 271.485 597.616 272.129 596.961 272.761C596.306 273.394 595.465 273.919 594.437 274.337C593.409 274.755 592.177 274.964 590.743 274.964ZM591.844 270.897C593.245 270.897 594.442 270.621 595.436 270.067C596.442 269.514 597.204 268.791 597.724 267.898C598.255 266.995 598.52 266.029 598.52 265.001V261.646C598.339 261.827 597.989 261.996 597.47 262.154C596.961 262.301 596.38 262.431 595.724 262.544C595.069 262.646 594.431 262.742 593.81 262.832C593.188 262.911 592.669 262.979 592.251 263.035C591.268 263.16 590.37 263.369 589.557 263.662C588.755 263.956 588.111 264.38 587.625 264.933C587.151 265.475 586.914 266.198 586.914 267.102C586.914 268.356 587.377 269.305 588.303 269.948C589.229 270.581 590.41 270.897 591.844 270.897Z" fill="#FFFAF4"/>
<path d="M549.444 274.389L541.785 248.364H547.021L552.121 267.476H552.375L557.492 248.364H562.727L567.81 267.391H568.065L573.131 248.364H578.366L570.725 274.389H565.557L560.271 255.599H559.881L554.594 274.389H549.444Z" fill="#FFFAF4"/>
<path d="M537.732 254.716L533.141 255.529C532.949 254.942 532.644 254.383 532.226 253.852C531.819 253.321 531.266 252.886 530.565 252.547C529.865 252.209 528.989 252.039 527.939 252.039C526.504 252.039 525.307 252.361 524.347 253.005C523.387 253.637 522.907 254.456 522.907 255.462C522.907 256.331 523.229 257.032 523.872 257.563C524.516 258.094 525.556 258.528 526.99 258.867L531.124 259.816C533.519 260.37 535.304 261.222 536.479 262.375C537.653 263.527 538.241 265.023 538.241 266.865C538.241 268.424 537.789 269.813 536.885 271.033C535.993 272.241 534.745 273.19 533.141 273.879C531.548 274.568 529.701 274.913 527.6 274.913C524.686 274.913 522.308 274.292 520.467 273.049C518.626 271.795 517.496 270.016 517.078 267.712L521.975 266.966C522.28 268.243 522.907 269.209 523.856 269.864C524.804 270.508 526.041 270.829 527.566 270.829C529.227 270.829 530.554 270.485 531.548 269.796C532.542 269.096 533.039 268.243 533.039 267.237C533.039 266.424 532.734 265.741 532.124 265.187C531.525 264.634 530.605 264.216 529.362 263.933L524.957 262.968C522.528 262.414 520.732 261.533 519.569 260.324C518.417 259.116 517.841 257.585 517.841 255.733C517.841 254.197 518.27 252.852 519.128 251.7C519.987 250.548 521.173 249.65 522.686 249.006C524.2 248.351 525.934 248.023 527.888 248.023C530.701 248.023 532.915 248.633 534.53 249.853C536.145 251.062 537.213 252.683 537.732 254.716Z" fill="#FFFAF4"/>
<path d="M499 269.644L498.746 271.491C498.577 272.846 498.289 274.258 497.882 275.727C497.487 277.207 497.074 278.579 496.645 279.844C496.227 281.109 495.883 282.115 495.612 282.86H492.02C492.166 282.16 492.37 281.211 492.629 280.014C492.889 278.827 493.143 277.5 493.392 276.032C493.64 274.563 493.827 273.067 493.951 271.542L494.121 269.644H499Z" fill="#FFFAF4"/>
<path d="M462.949 274.389V239.688H468.015V252.583H468.32C468.614 252.04 469.038 251.413 469.591 250.702C470.145 249.99 470.913 249.369 471.895 248.838C472.878 248.296 474.177 248.025 475.792 248.025C477.893 248.025 479.769 248.556 481.418 249.617C483.067 250.679 484.36 252.21 485.298 254.209C486.247 256.208 486.721 258.614 486.721 261.427C486.721 264.24 486.252 266.651 485.315 268.662C484.377 270.661 483.089 272.203 481.452 273.288C479.814 274.361 477.944 274.897 475.843 274.897C474.262 274.897 472.969 274.632 471.963 274.101C470.969 273.57 470.19 272.949 469.625 272.237C469.06 271.525 468.625 270.893 468.32 270.339H467.897V274.389H462.949ZM467.914 261.376C467.914 263.206 468.179 264.81 468.71 266.188C469.241 267.566 470.009 268.645 471.014 269.424C472.02 270.193 473.251 270.577 474.708 270.577C476.222 270.577 477.487 270.176 478.503 269.374C479.52 268.56 480.288 267.459 480.808 266.07C481.339 264.68 481.604 263.116 481.604 261.376C481.604 259.659 481.344 258.117 480.825 256.751C480.316 255.384 479.548 254.305 478.52 253.514C477.504 252.724 476.233 252.328 474.708 252.328C473.24 252.328 471.997 252.707 470.98 253.464C469.975 254.22 469.213 255.277 468.693 256.632C468.173 257.988 467.914 259.569 467.914 261.376Z" fill="#FFFAF4"/>
<path d="M444.761 274.913C442.321 274.913 440.191 274.354 438.373 273.235C436.554 272.117 435.142 270.553 434.137 268.542C433.132 266.531 432.629 264.182 432.629 261.494C432.629 258.794 433.132 256.433 434.137 254.411C435.142 252.389 436.554 250.819 438.373 249.701C440.191 248.583 442.321 248.023 444.761 248.023C447.2 248.023 449.33 248.583 451.148 249.701C452.967 250.819 454.379 252.389 455.384 254.411C456.389 256.433 456.892 258.794 456.892 261.494C456.892 264.182 456.389 266.531 455.384 268.542C454.379 270.553 452.967 272.117 451.148 273.235C449.33 274.354 447.2 274.913 444.761 274.913ZM444.777 270.66C446.359 270.66 447.669 270.242 448.708 269.406C449.748 268.57 450.516 267.458 451.013 266.068C451.521 264.679 451.775 263.148 451.775 261.477C451.775 259.816 451.521 258.291 451.013 256.902C450.516 255.501 449.748 254.377 448.708 253.53C447.669 252.683 446.359 252.259 444.777 252.259C443.185 252.259 441.863 252.683 440.813 253.53C439.773 254.377 439 255.501 438.491 256.902C437.994 258.291 437.746 259.816 437.746 261.477C437.746 263.148 437.994 264.679 438.491 266.068C439 267.458 439.773 268.57 440.813 269.406C441.863 270.242 443.185 270.66 444.777 270.66Z" fill="#FFFAF4"/>
<path d="M421.91 248.363H426.976V276.083C426.976 277.823 426.66 279.291 426.028 280.488C425.406 281.686 424.48 282.595 423.249 283.216C422.029 283.838 420.521 284.148 418.725 284.148C418.544 284.148 418.375 284.148 418.217 284.148C418.047 284.148 417.872 284.143 417.691 284.131V279.777C417.85 279.777 417.991 279.777 418.115 279.777C418.228 279.777 418.358 279.777 418.505 279.777C419.702 279.777 420.566 279.455 421.097 278.811C421.639 278.178 421.91 277.258 421.91 276.049V248.363ZM424.418 244.348C423.537 244.348 422.78 244.054 422.148 243.467C421.526 242.868 421.216 242.156 421.216 241.332C421.216 240.496 421.526 239.784 422.148 239.197C422.78 238.598 423.537 238.299 424.418 238.299C425.299 238.299 426.05 238.598 426.672 239.197C427.304 239.784 427.62 240.496 427.62 241.332C427.62 242.156 427.304 242.868 426.672 243.467C426.05 244.054 425.299 244.348 424.418 244.348Z" fill="#FFFAF4"/>
<path d="M389.688 274.964C388.039 274.964 386.548 274.659 385.215 274.049C383.882 273.428 382.826 272.53 382.047 271.355C381.279 270.18 380.895 268.74 380.895 267.034C380.895 265.566 381.177 264.357 381.742 263.408C382.307 262.459 383.069 261.708 384.029 261.155C384.989 260.601 386.062 260.183 387.248 259.901C388.434 259.618 389.643 259.404 390.874 259.257C392.433 259.076 393.698 258.929 394.67 258.816C395.641 258.692 396.347 258.495 396.788 258.223C397.228 257.952 397.448 257.512 397.448 256.902V256.783C397.448 255.304 397.03 254.157 396.195 253.344C395.37 252.53 394.139 252.124 392.501 252.124C390.795 252.124 389.451 252.502 388.468 253.259C387.497 254.005 386.825 254.835 386.452 255.75L381.691 254.665C382.256 253.084 383.08 251.808 384.165 250.836C385.26 249.853 386.52 249.142 387.943 248.701C389.366 248.249 390.863 248.023 392.433 248.023C393.472 248.023 394.574 248.148 395.737 248.396C396.912 248.633 398.008 249.074 399.024 249.718C400.052 250.362 400.894 251.282 401.549 252.48C402.204 253.666 402.531 255.208 402.531 257.105V274.388H397.584V270.829H397.381C397.053 271.485 396.562 272.129 395.907 272.761C395.251 273.394 394.41 273.919 393.382 274.337C392.354 274.755 391.123 274.964 389.688 274.964ZM390.79 270.897C392.19 270.897 393.388 270.621 394.382 270.067C395.387 269.514 396.149 268.791 396.669 267.898C397.2 266.995 397.465 266.029 397.465 265.001V261.646C397.285 261.827 396.934 261.996 396.415 262.154C395.907 262.301 395.325 262.431 394.67 262.544C394.015 262.646 393.376 262.742 392.755 262.832C392.134 262.911 391.614 262.979 391.196 263.035C390.214 263.16 389.315 263.369 388.502 263.662C387.7 263.956 387.056 264.38 386.571 264.933C386.096 265.475 385.859 266.198 385.859 267.102C385.859 268.356 386.322 269.305 387.248 269.948C388.175 270.581 389.355 270.897 390.79 270.897Z" fill="#FFFAF4"/>
<path d="M349.374 274.897C347.273 274.897 345.398 274.361 343.749 273.288C342.111 272.203 340.823 270.661 339.885 268.662C338.959 266.651 338.496 264.24 338.496 261.427C338.496 258.614 338.965 256.208 339.902 254.209C340.851 252.21 342.15 250.679 343.799 249.617C345.449 248.556 347.318 248.025 349.408 248.025C351.023 248.025 352.322 248.296 353.305 248.838C354.299 249.369 355.067 249.99 355.609 250.702C356.163 251.413 356.592 252.04 356.897 252.583H357.202V239.688H362.268V274.389H357.32V270.339H356.897C356.592 270.893 356.151 271.525 355.575 272.237C355.01 272.949 354.231 273.57 353.237 274.101C352.243 274.632 350.955 274.897 349.374 274.897ZM350.492 270.577C351.949 270.577 353.181 270.193 354.186 269.424C355.202 268.645 355.971 267.566 356.49 266.188C357.021 264.81 357.287 263.206 357.287 261.376C357.287 259.569 357.027 257.988 356.507 256.632C355.988 255.277 355.225 254.22 354.22 253.464C353.214 252.707 351.972 252.328 350.492 252.328C348.967 252.328 347.696 252.724 346.68 253.514C345.663 254.305 344.895 255.384 344.376 256.751C343.867 258.117 343.613 259.659 343.613 261.376C343.613 263.116 343.873 264.68 344.392 266.07C344.912 267.459 345.68 268.56 346.697 269.374C347.725 270.176 348.99 270.577 350.492 270.577Z" fill="#FFFAF4"/>
<path d="M316.179 258.935V274.388H311.113V248.362H315.976V252.598H316.298C316.897 251.22 317.834 250.113 319.111 249.277C320.398 248.441 322.019 248.023 323.973 248.023C325.747 248.023 327.3 248.396 328.633 249.142C329.966 249.876 330.999 250.972 331.734 252.429C332.468 253.886 332.835 255.688 332.835 257.834V274.388H327.769V258.444C327.769 256.557 327.277 255.083 326.295 254.021C325.312 252.948 323.962 252.412 322.245 252.412C321.07 252.412 320.026 252.666 319.111 253.174C318.207 253.683 317.49 254.428 316.959 255.411C316.439 256.382 316.179 257.557 316.179 258.935Z" fill="#FFFAF4"/>
<path d="M299.22 274.389V248.363H304.286V274.389H299.22ZM301.779 244.348C300.897 244.348 300.141 244.054 299.508 243.467C298.887 242.868 298.576 242.156 298.576 241.332C298.576 240.496 298.887 239.784 299.508 239.197C300.141 238.598 300.897 238.299 301.779 238.299C302.66 238.299 303.411 238.598 304.032 239.197C304.665 239.784 304.981 240.496 304.981 241.332C304.981 242.156 304.665 242.868 304.032 243.467C303.411 244.054 302.66 244.348 301.779 244.348Z" fill="#FFFAF4"/>
<path d="M271.678 274.389V239.688H293.196V244.195H276.913V254.768H291.654V259.258H276.913V274.389H271.678Z" fill="#FFFAF4"/>
<defs>
<filter id="filter0_di_7_31796" x="15.5918" y="17.5913" width="204.879" height="173.671" filterUnits="userSpaceOnUse" color-interpolation-filters="sRGB">
<feFlood flood-opacity="0" result="BackgroundImageFix"/>
<feColorMatrix in="SourceAlpha" type="matrix" values="0 0 0 0 0 0 0 0 0 0 0 0 0 0 0 0 0 0 127 0" result="hardAlpha"/>
<feOffset dy="4"/>
<feGaussianBlur stdDeviation="2"/>
<feComposite in2="hardAlpha" operator="out"/>
<feColorMatrix type="matrix" values="0 0 0 0 0 0 0 0 0 0 0 0 0 0 0 0 0 0 0.25 0"/>
<feBlend mode="normal" in2="BackgroundImageFix" result="effect1_dropShadow_7_31796"/>
<feBlend mode="normal" in="SourceGraphic" in2="effect1_dropShadow_7_31796" result="shape"/>
<feColorMatrix in="SourceAlpha" type="matrix" values="0 0 0 0 0 0 0 0 0 0 0 0 0 0 0 0 0 0 127 0" result="hardAlpha"/>
<feOffset dy="-2"/>
<feGaussianBlur stdDeviation="2"/>
<feComposite in2="hardAlpha" operator="arithmetic" k2="-1" k3="1"/>
<feColorMatrix type="matrix" values="0 0 0 0 0 0 0 0 0 0 0 0 0 0 0 0 0 0 0.25 0"/>
<feBlend mode="normal" in2="shape" result="effect2_innerShadow_7_31796"/>
</filter>
<filter id="filter1_i_7_31796" x="96.0137" y="66.9082" width="44.7461" height="68.6709" filterUnits="userSpaceOnUse" color-interpolation-filters="sRGB">
<feFlood flood-opacity="0" result="BackgroundImageFix"/>
<feBlend mode="normal" in="SourceGraphic" in2="BackgroundImageFix" result="shape"/>
<feColorMatrix in="SourceAlpha" type="matrix" values="0 0 0 0 0 0 0 0 0 0 0 0 0 0 0 0 0 0 127 0" result="hardAlpha"/>
<feOffset dy="4"/>
<feGaussianBlur stdDeviation="1.5"/>
<feComposite in2="hardAlpha" operator="arithmetic" k2="-1" k3="1"/>
<feColorMatrix type="matrix" values="0 0 0 0 0 0 0 0 0 0 0 0 0 0 0 0 0 0 0.2 0"/>
<feBlend mode="normal" in2="shape" result="effect1_innerShadow_7_31796"/>
</filter>
</defs>
</svg>
