<svg width="40" height="40" viewBox="0 0 40 40" fill="none" xmlns="http://www.w3.org/2000/svg">
<rect width="40" height="40" rx="20" fill="#373037"/>
<path d="M10 13.3333C10 11.4924 11.5216 10 13.3987 10H26.6013C28.4784 10 30 11.4924 30 13.3333V26.6667C30 28.5076 28.4784 30 26.6013 30H13.3987C11.5216 30 10 28.5076 10 26.6667V13.3333Z" fill="#008CD5"/>
<path d="M24.0775 27.1881H27.0891V21.2309C27.0891 18.2888 25.2731 17.2853 23.5927 17.2853C22.0388 17.2853 20.9832 18.2976 20.6918 18.8906V17.556H17.7954V27.1881H20.8071V21.9659C20.8071 20.5735 21.6831 19.8963 22.5767 19.8963C23.422 19.8963 24.0775 20.375 24.0775 21.9273V27.1881Z" fill="#373037"/>
<path d="M12.7441 14.4736C12.7441 15.4792 13.5215 16.214 14.4804 16.214C15.4394 16.214 16.2168 15.4792 16.2168 14.4736C16.2168 13.4681 15.4394 12.7324 14.4804 12.7324C13.5215 12.7324 12.7441 13.4681 12.7441 14.4736Z" fill="#373037"/>
<path d="M12.9747 27.1807H15.9861V17.5486H12.9747V27.1807Z" fill="#373037"/>
</svg>
