<svg width="16" height="15" viewBox="0 0 16 15" fill="none" xmlns="http://www.w3.org/2000/svg">
<path d="M6 6.75C5.7375 7.1925 5.52 7.68 5.3925 8.1975C3.375 8.37 1.425 9.315 1.425 9.75V10.575H5.4C5.5275 11.085 5.7375 11.565 6 12H0V9.75C0 7.755 3.9975 6.75 6 6.75ZM6 0C6.79565 0 7.55871 0.31607 8.12132 0.87868C8.68393 1.44129 9 2.20435 9 3C9 3.6825 8.7675 4.3125 8.385 4.8225C7.74 5.0625 7.1625 5.445 6.6825 5.925L6 6C5.20435 6 4.44129 5.68393 3.87868 5.12132C3.31607 4.55871 3 3.79565 3 3C3 2.20435 3.31607 1.44129 3.87868 0.87868C4.44129 0.31607 5.20435 0 6 0ZM6 1.425C5.58228 1.425 5.18168 1.59094 4.88631 1.88631C4.59094 2.18168 4.425 2.58228 4.425 3C4.425 3.41772 4.59094 3.81832 4.88631 4.11369C5.18168 4.40906 5.58228 4.575 6 4.575C6.41772 4.575 6.81832 4.40906 7.11369 4.11369C7.40906 3.81832 7.575 3.41772 7.575 3C7.575 2.58228 7.40906 2.18168 7.11369 1.88631C6.81832 1.59094 6.41772 1.425 6 1.425ZM10.125 6C12 6 13.5 7.5 13.5 9.375C13.5 10.035 13.3125 10.6575 12.9825 11.175L15.2925 13.5L14.25 14.5425L11.91 12.24C11.3925 12.5625 10.7775 12.75 10.125 12.75C8.25 12.75 6.75 11.25 6.75 9.375C6.75 7.5 8.25 6 10.125 6ZM10.125 7.5C9.62772 7.5 9.15081 7.69754 8.79918 8.04918C8.44754 8.40081 8.25 8.87772 8.25 9.375C8.25 9.87228 8.44754 10.3492 8.79918 10.7008C9.15081 11.0525 9.62772 11.25 10.125 11.25C10.6223 11.25 11.0992 11.0525 11.4508 10.7008C11.8025 10.3492 12 9.87228 12 9.375C12 8.87772 11.8025 8.40081 11.4508 8.04918C11.0992 7.69754 10.6223 7.5 10.125 7.5Z" fill="#FFFAF4"/>
</svg>
