<svg width="12" height="14" viewBox="0 0 12 14" fill="none" xmlns="http://www.w3.org/2000/svg">
<path d="M9.27 7.57C10.7325 8.065 12 8.875 12 10V13.75H0V10C0 8.875 1.2675 8.065 2.7375 7.57L3.2025 8.5L3.375 8.875C2.25 9.22 1.425 9.715 1.425 10V12.325H4.59L5.25 8.5225L4.545 7.1125C5.01 7.06 5.4975 7.0225 6 7.0225C6.5025 7.0225 6.99 7.06 7.455 7.1125L6.75 8.5225L7.41 12.325H10.575V10C10.575 9.715 9.75 9.22 8.625 8.875L8.7975 8.5L9.27 7.57ZM6 1.75C5.175 1.75 4.5 2.425 4.5 3.25C4.5 4.075 5.175 4.75 6 4.75C6.825 4.75 7.5 4.075 7.5 3.25C7.5 2.425 6.825 1.75 6 1.75ZM6 6.25C4.3425 6.25 3 4.9075 3 3.25C3 1.5925 4.3425 0.25 6 0.25C7.6575 0.25 9 1.5925 9 3.25C9 4.9075 7.6575 6.25 6 6.25Z" fill="#FFFAF4"/>
</svg>
