<svg width="40" height="40" viewBox="0 0 40 40" fill="none" xmlns="http://www.w3.org/2000/svg">
<rect width="40" height="40" rx="20" fill="#373037"/>
<g clip-path="url(#clip0_756_7621)">
<path d="M20 18.1819V22.0546H25.3818C25.1455 23.3001 24.4363 24.3547 23.3727 25.0637L26.6181 27.5819C28.509 25.8365 29.5999 23.2729 29.5999 20.2274C29.5999 19.5184 29.5363 18.8365 29.4181 18.182L20 18.1819Z" fill="#4285F4"/>
<path d="M14.3952 21.9033L13.6632 22.4636L11.0723 24.4818C12.7177 27.7454 16.0902 30 19.9993 30C22.6992 30 24.9628 29.1091 26.6174 27.5818L23.3719 25.0636C22.481 25.6636 21.3447 26.0273 19.9993 26.0273C17.3993 26.0273 15.1902 24.2728 14.3993 21.9091L14.3952 21.9033Z" fill="#34A853"/>
<path d="M11.0726 15.5181C10.3909 16.8635 10 18.3817 10 19.9998C10 21.618 10.3909 23.1362 11.0726 24.4816C11.0726 24.4906 14.4 21.8998 14.4 21.8998C14.2 21.2998 14.0818 20.6634 14.0818 19.9997C14.0818 19.336 14.2 18.6997 14.4 18.0997L11.0726 15.5181Z" fill="#FBBC05"/>
<path d="M19.9995 13.9818C21.4722 13.9818 22.7813 14.4909 23.8267 15.4727L26.6903 12.6091C24.954 10.991 22.6995 10 19.9995 10C16.0904 10 12.7177 12.2455 11.0723 15.5182L14.3995 18.1C15.1904 15.7363 17.3995 13.9818 19.9995 13.9818Z" fill="#EA4335"/>
</g>
<defs>
<clipPath id="clip0_756_7621">
<rect width="20" height="20" fill="white" transform="translate(10 10)"/>
</clipPath>
</defs>
</svg>
