<svg width="18" height="11" viewBox="0 0 18 11" fill="none" xmlns="http://www.w3.org/2000/svg">
<path d="M9 3.40973C8.40326 3.40973 7.83097 3.62524 7.40901 4.00883C6.98705 4.39243 6.75 4.9127 6.75 5.45519C6.75 5.99768 6.98705 6.51795 7.40901 6.90154C7.83097 7.28514 8.40326 7.50064 9 7.50064C9.59674 7.50064 10.169 7.28514 10.591 6.90154C11.0129 6.51795 11.25 5.99768 11.25 5.45519C11.25 4.9127 11.0129 4.39243 10.591 4.00883C10.169 3.62524 9.59674 3.40973 9 3.40973ZM9 8.86428C8.00544 8.86428 7.05161 8.50511 6.34835 7.86578C5.64509 7.22645 5.25 6.35934 5.25 5.45519C5.25 4.55104 5.64509 3.68393 6.34835 3.0446C7.05161 2.40527 8.00544 2.0461 9 2.0461C9.99456 2.0461 10.9484 2.40527 11.6517 3.0446C12.3549 3.68393 12.75 4.55104 12.75 5.45519C12.75 6.35934 12.3549 7.22645 11.6517 7.86578C10.9484 8.50511 9.99456 8.86428 9 8.86428ZM9 0.341553C5.25 0.341553 2.0475 2.46201 0.75 5.45519C2.0475 8.44837 5.25 10.5688 9 10.5688C12.75 10.5688 15.9525 8.44837 17.25 5.45519C15.9525 2.46201 12.75 0.341553 9 0.341553Z" fill="#4B8ADE"/>
</svg>
