<svg width="163" height="60" viewBox="0 0 163 60" fill="none" xmlns="http://www.w3.org/2000/svg">
<g id="Artidevis_logo-04-04 1">
<path id="Vector" d="M51.958 44.1547L57.6401 28.6475H59.6144L65.2966 44.1547H63.3223L61.9258 40.145H55.3288L53.8842 44.1547H51.958ZM55.8585 38.6475H61.348L58.6032 30.9663L55.8585 38.6475Z" fill="black"/>
<path id="Vector_2" d="M89.8545 44.1547V28.6475H94.6217C97.3665 28.6475 99.3408 29.3238 100.641 30.7248C101.941 32.1257 102.567 34.0098 102.567 36.4252C102.567 38.7924 101.941 40.6764 100.641 42.0774C99.3408 43.4784 97.3665 44.1547 94.6217 44.1547H89.8545ZM91.7325 42.6088H94.5735C96.0663 42.6088 97.2701 42.3673 98.1851 41.8842C99.0518 41.4011 99.726 40.6764 100.111 39.7586C100.496 38.8407 100.689 37.7296 100.689 36.4735C100.689 35.1692 100.496 34.0581 100.111 33.1402C99.726 32.2223 99.1 31.4977 98.1851 31.0146C97.2701 30.5315 96.1145 30.2417 94.5735 30.2417H91.7325V42.6088Z" fill="black"/>
<path id="Vector_3" d="M109.646 44.4926C108.587 44.4926 107.672 44.2511 106.853 43.768C106.035 43.2849 105.409 42.6086 104.927 41.739C104.446 40.8695 104.253 39.855 104.253 38.6955C104.253 37.5361 104.494 36.5216 104.927 35.6521C105.36 34.7825 106.035 34.1062 106.853 33.6231C107.672 33.14 108.635 32.8984 109.694 32.8984C110.754 32.8984 111.669 33.14 112.439 33.6231C113.21 34.1062 113.787 34.7342 114.221 35.5071C114.654 36.2801 114.847 37.1496 114.847 38.0192C114.847 38.1641 114.847 38.3574 114.847 38.5023C114.847 38.6472 114.847 38.8405 114.847 39.0337H106.131C106.179 39.855 106.372 40.5796 106.709 41.111C107.046 41.6424 107.479 42.0772 108.009 42.367C108.539 42.6569 109.068 42.8018 109.694 42.8018C110.465 42.8018 111.091 42.6086 111.62 42.2704C112.15 41.9323 112.487 41.4492 112.728 40.8211H114.558C114.269 41.8356 113.691 42.7052 112.872 43.3815C112.006 44.1545 110.946 44.4926 109.646 44.4926ZM109.646 34.541C108.779 34.541 107.961 34.8308 107.287 35.3622C106.612 35.8936 106.227 36.6666 106.083 37.7294H112.969C112.921 36.7632 112.584 35.9419 111.958 35.4105C111.38 34.8308 110.609 34.541 109.646 34.541Z" fill="black"/>
<path id="Vector_4" d="M119.999 44.2508L115.857 33.2363H117.784L121.058 42.4151L124.381 33.2363H126.259L122.117 44.2508H119.999Z" fill="black"/>
<path id="Vector_5" d="M129.485 30.8216C129.099 30.8216 128.811 30.6767 128.57 30.4352C128.329 30.1936 128.185 29.9038 128.185 29.5173C128.185 29.1791 128.329 28.8893 128.57 28.6477C128.811 28.4062 129.099 28.3096 129.485 28.3096C129.822 28.3096 130.159 28.4062 130.4 28.6477C130.64 28.8893 130.785 29.1791 130.785 29.5173C130.785 29.9038 130.64 30.1936 130.4 30.4352C130.159 30.6767 129.822 30.8216 129.485 30.8216ZM128.57 44.2516V33.2371H130.448V44.2516H128.57Z" fill="black"/>
<path id="Vector_6" d="M137.864 44.4932C136.564 44.4932 135.457 44.155 134.59 43.4787C133.723 42.8023 133.193 41.9328 133.049 40.7734H134.927C135.023 41.3531 135.36 41.8362 135.842 42.2709C136.323 42.7057 136.997 42.899 137.864 42.899C138.635 42.899 139.212 42.754 139.598 42.4159C139.983 42.0777 140.127 41.6912 140.127 41.2081C140.127 40.5318 139.887 40.097 139.405 39.8555C138.924 39.6139 138.249 39.4207 137.383 39.2758C136.805 39.1792 136.227 38.9859 135.601 38.7444C135.023 38.5028 134.542 38.213 134.108 37.8265C133.723 37.44 133.53 36.9086 133.53 36.2323C133.53 35.2661 133.867 34.4932 134.59 33.8651C135.312 33.2371 136.275 32.9473 137.479 32.9473C138.635 32.9473 139.598 33.2371 140.32 33.8168C141.042 34.3965 141.476 35.2178 141.62 36.3289H139.79C139.694 35.7492 139.453 35.3144 139.068 35.0246C138.683 34.6864 138.105 34.5415 137.431 34.5415C136.757 34.5415 136.275 34.6864 135.89 34.9763C135.553 35.2661 135.36 35.6043 135.36 36.0874C135.36 36.5221 135.601 36.8603 136.034 37.1502C136.516 37.3917 137.142 37.6333 137.912 37.7782C138.586 37.9231 139.212 38.1164 139.838 38.3096C140.464 38.5028 140.946 38.841 141.331 39.2758C141.716 39.7106 141.909 40.2903 141.909 41.1115C141.909 42.0777 141.572 42.899 140.802 43.5753C140.176 44.2033 139.116 44.4932 137.864 44.4932Z" fill="black"/>
<g id="Group">
<path id="Vector_7" d="M85.0394 30.725C85.3765 30.725 85.7136 30.58 85.9543 30.3385C86.1951 30.0969 86.3396 29.8071 86.3396 29.4206C86.3396 29.0825 86.1951 28.7926 85.9543 28.5511C85.7136 28.3095 85.4246 28.2129 85.0394 28.2129C84.6542 28.2129 84.3653 28.3095 84.1245 28.5511C83.8837 28.7926 83.7393 29.0825 83.7393 29.4206C83.7393 29.8071 83.8837 30.0969 84.1245 30.3385C84.3653 30.58 84.6542 30.725 85.0394 30.725Z" fill="black"/>
<path id="Vector_8" d="M84.1247 42.5607H80.2242C79.5019 42.5607 79.0204 42.4158 78.7314 42.1742C78.4425 41.9327 78.2981 41.4496 78.2981 40.7733V34.7346H81.5244V33.1404H78.2981V30.4834H76.709L76.4682 33.1404H74.5902C73.579 33.1404 71.5566 33.0921 70.7379 33.5269C70.0156 33.9134 69.5341 34.5414 69.197 35.266L69.0526 33.1404H67.3672V44.1066H69.2452V38.5993C69.2452 37.6332 69.3896 36.9085 69.7267 36.3288C70.0638 35.7974 70.4972 35.4592 71.0269 35.1694C71.4121 34.9762 71.7973 34.7829 72.8085 34.7346H74.5902H76.4682V40.7733C76.4682 42.0293 76.7571 42.8989 77.335 43.4303C77.9128 43.9134 78.6833 44.1549 79.6945 44.1549H84.1247H86.0026V33.1404H84.1247V42.5607Z" fill="black"/>
</g>
<path id="Vector_9" d="M34.0443 35.507V33.5747L21.1873 21.9805V23.9611L22.9208 25.507L16.083 31.9805H17.6721V40.1447H19.8871V32.9467L24.4136 28.6954V26.8597L30.2402 32.0771V41.9805H21.1873V44.1061H34.0443L31.6848 41.9805V33.3331L34.0443 35.507Z" fill="#0E040F"/>
<g id="Group_2">
<path id="Vector_10" d="M44.783 28.6475L24.4141 10.29V13.7683L41.0271 28.6475H44.783Z" fill="#0E040F"/>
<path id="Vector_11" d="M44.7833 28.6475H41.0273V44.1547H44.7833V28.6475Z" fill="#0E040F"/>
</g>
</g>
</svg>
