<svg width="163" height="60" viewBox="0 0 163 60" fill="none" xmlns="http://www.w3.org/2000/svg">
<path d="M51.957 44.1547L57.6392 28.6475H59.6135L65.2956 44.1547H63.3213L61.9248 40.145H55.3278L53.8832 44.1547H51.957ZM55.8575 38.6475H61.347L58.6022 30.9663L55.8575 38.6475Z" fill="black"/>
<path d="M89.8555 44.1547V28.6475H94.6227C97.3674 28.6475 99.3417 29.3238 100.642 30.7248C101.942 32.1257 102.568 34.0098 102.568 36.4252C102.568 38.7924 101.942 40.6764 100.642 42.0774C99.3417 43.4784 97.3674 44.1547 94.6227 44.1547H89.8555ZM91.7335 42.6088H94.5745C96.0673 42.6088 97.2711 42.3673 98.186 41.8842C99.0528 41.4011 99.727 40.6764 100.112 39.7586C100.497 38.8407 100.69 37.7296 100.69 36.4735C100.69 35.1692 100.497 34.0581 100.112 33.1402C99.727 32.2223 99.101 31.4977 98.186 31.0146C97.2711 30.5315 96.1154 30.2417 94.5745 30.2417H91.7335V42.6088Z" fill="black"/>
<path d="M109.645 44.4926C108.586 44.4926 107.671 44.2511 106.852 43.768C106.034 43.2849 105.408 42.6086 104.926 41.739C104.445 40.8695 104.252 39.855 104.252 38.6955C104.252 37.5361 104.493 36.5216 104.926 35.6521C105.359 34.7825 106.034 34.1062 106.852 33.6231C107.671 33.14 108.634 32.8984 109.693 32.8984C110.753 32.8984 111.668 33.14 112.438 33.6231C113.209 34.1062 113.786 34.7342 114.22 35.5071C114.653 36.2801 114.846 37.1496 114.846 38.0192C114.846 38.1641 114.846 38.3574 114.846 38.5023C114.846 38.6472 114.846 38.8405 114.846 39.0337H106.13C106.178 39.855 106.371 40.5796 106.708 41.111C107.045 41.6424 107.478 42.0772 108.008 42.367C108.538 42.6569 109.067 42.8018 109.693 42.8018C110.464 42.8018 111.09 42.6086 111.619 42.2704C112.149 41.9323 112.486 41.4492 112.727 40.8211H114.557C114.268 41.8356 113.69 42.7052 112.871 43.3815C112.005 44.1545 110.945 44.4926 109.645 44.4926ZM109.645 34.541C108.778 34.541 107.96 34.8308 107.286 35.3622C106.611 35.8936 106.226 36.6666 106.082 37.7294H112.968C112.92 36.7632 112.583 35.9419 111.957 35.4105C111.379 34.8308 110.608 34.541 109.645 34.541Z" fill="black"/>
<path d="M119.999 44.2508L115.857 33.2363H117.784L121.058 42.4151L124.381 33.2363H126.259L122.117 44.2508H119.999Z" fill="black"/>
<path d="M129.486 30.8216C129.1 30.8216 128.812 30.6767 128.571 30.4352C128.33 30.1936 128.186 29.9038 128.186 29.5173C128.186 29.1791 128.33 28.8893 128.571 28.6477C128.812 28.4062 129.1 28.3096 129.486 28.3096C129.823 28.3096 130.16 28.4062 130.401 28.6477C130.641 28.8893 130.786 29.1791 130.786 29.5173C130.786 29.9038 130.641 30.1936 130.401 30.4352C130.16 30.6767 129.823 30.8216 129.486 30.8216ZM128.571 44.2516V33.2371H130.449V44.2516H128.571Z" fill="black"/>
<path d="M137.864 44.4932C136.564 44.4932 135.457 44.155 134.59 43.4787C133.723 42.8023 133.193 41.9328 133.049 40.7734H134.927C135.023 41.3531 135.36 41.8362 135.842 42.2709C136.323 42.7057 136.997 42.899 137.864 42.899C138.635 42.899 139.212 42.754 139.598 42.4159C139.983 42.0777 140.127 41.6912 140.127 41.2081C140.127 40.5318 139.887 40.097 139.405 39.8555C138.924 39.6139 138.249 39.4207 137.383 39.2758C136.805 39.1792 136.227 38.9859 135.601 38.7444C135.023 38.5028 134.542 38.213 134.108 37.8265C133.723 37.44 133.53 36.9086 133.53 36.2323C133.53 35.2661 133.867 34.4932 134.59 33.8651C135.312 33.2371 136.275 32.9473 137.479 32.9473C138.635 32.9473 139.598 33.2371 140.32 33.8168C141.042 34.3965 141.476 35.2178 141.62 36.3289H139.79C139.694 35.7492 139.453 35.3144 139.068 35.0246C138.683 34.6864 138.105 34.5415 137.431 34.5415C136.757 34.5415 136.275 34.6864 135.89 34.9763C135.553 35.2661 135.36 35.6043 135.36 36.0874C135.36 36.5221 135.601 36.8603 136.034 37.1502C136.516 37.3917 137.142 37.6333 137.912 37.7782C138.586 37.9231 139.212 38.1164 139.838 38.3096C140.464 38.5028 140.946 38.841 141.331 39.2758C141.716 39.7106 141.909 40.2903 141.909 41.1115C141.909 42.0777 141.572 42.899 140.802 43.5753C140.176 44.2033 139.116 44.4932 137.864 44.4932Z" fill="black"/>
<path d="M85.0404 30.725C85.3775 30.725 85.7145 30.58 85.9553 30.3385C86.1961 30.0969 86.3405 29.8071 86.3405 29.4206C86.3405 29.0825 86.1961 28.7926 85.9553 28.5511C85.7145 28.3095 85.4256 28.2129 85.0404 28.2129C84.6552 28.2129 84.3662 28.3095 84.1255 28.5511C83.8847 28.7926 83.7402 29.0825 83.7402 29.4206C83.7402 29.8071 83.8847 30.0969 84.1255 30.3385C84.3662 30.58 84.6552 30.725 85.0404 30.725Z" fill="black"/>
<path d="M84.1247 42.5607H80.2242C79.5019 42.5607 79.0204 42.4158 78.7314 42.1742C78.4425 41.9327 78.2981 41.4496 78.2981 40.7733V34.7346H81.5244V33.1404H78.2981V30.4834H76.709L76.4682 33.1404H74.5902C73.579 33.1404 71.5566 33.0921 70.7379 33.5269C70.0156 33.9134 69.5341 34.5414 69.197 35.266L69.0526 33.1404H67.3672V44.1066H69.2452V38.5993C69.2452 37.6332 69.3896 36.9085 69.7267 36.3288C70.0638 35.7974 70.4972 35.4592 71.0269 35.1694C71.4121 34.9762 71.7973 34.7829 72.8085 34.7346H74.5902H76.4682V40.7733C76.4682 42.0293 76.7571 42.8989 77.335 43.4303C77.9128 43.9134 78.6833 44.1549 79.6945 44.1549H84.1247H86.0026V33.1404H84.1247V42.5607Z" fill="black"/>
<path d="M34.0453 35.507V33.5747L21.1883 21.9805V23.9611L22.9218 25.507L16.084 31.9805H17.6731V40.1447H19.8881V32.9467L24.4146 28.6954V26.8597L30.2411 32.0771V41.9805H21.1883V44.1061H34.0453L31.6858 41.9805V33.3331L34.0453 35.507Z" fill="#0E040F"/>
<path d="M44.783 28.6475L24.4141 10.29V13.7683L41.0271 28.6475H44.783Z" fill="#0E040F"/>
<path d="M44.7833 28.6475H41.0273V44.1547H44.7833V28.6475Z" fill="#0E040F"/>
</svg>
