<svg width="201" height="47" viewBox="0 0 201 47" fill="none" xmlns="http://www.w3.org/2000/svg">
<g filter="url(#filter0_di_1548_3845)">
<rect x="1" y="26.0459" width="41.9032" height="19.9305" rx="9.96525" transform="rotate(-32.9805 1 26.0459)" fill="#EE7272"/>
</g>
<g filter="url(#filter1_i_1548_3845)">
<path d="M27.4105 28.7966C24.2006 25.3162 22.4048 22.8237 19.8464 17.1291C19.7385 16.8889 19.8218 16.6043 20.0427 16.4609C20.2617 16.3188 20.5523 16.3561 20.7283 16.549C24.5666 20.7577 26.1974 23.4714 28.2962 28.2145C28.4029 28.4556 28.3183 28.7388 28.0972 28.8823C27.8779 29.0246 27.5877 28.9887 27.4105 28.7966Z" fill="#D26060"/>
</g>
<path d="M53.6211 34.8711C53.6211 34.194 53.7578 33.6927 54.0312 33.3672C54.3047 33.0417 54.6237 32.7747 54.9883 32.5664C55.3529 32.3581 55.6719 32.1237 55.9453 31.8633C56.2188 31.5898 56.3555 31.1732 56.3555 30.6133V16.3555C56.3555 15.7826 56.2188 15.3594 55.9453 15.0859C55.6719 14.8125 55.3529 14.5781 54.9883 14.3828C54.6237 14.1745 54.3047 13.9076 54.0312 13.582C53.7578 13.2565 53.6211 12.7617 53.6211 12.0977C53.6211 11.3685 53.8359 10.8346 54.2656 10.4961C54.7083 10.1445 55.2747 9.96875 55.9648 9.96875H67.6055C70.5221 9.96875 73.1393 10.5612 75.457 11.7461C77.7747 12.918 79.6042 14.5911 80.9453 16.7656C82.2995 18.9401 82.9766 21.5312 82.9766 24.5391C82.9766 27.1302 82.3711 29.3568 81.1602 31.2188C79.9492 33.0807 78.3216 34.513 76.2773 35.5156C74.2331 36.5052 71.9674 37 69.4805 37H55.9648C55.2617 37 54.6953 36.8307 54.2656 36.4922C53.8359 36.1536 53.6211 35.6133 53.6211 34.8711ZM68.5625 32.6445C69.526 32.6445 70.3073 32.3516 70.9062 31.7656C71.5052 31.1797 71.9609 30.444 72.2734 29.5586C72.599 28.6732 72.8203 27.7552 72.9375 26.8047C73.0547 25.8542 73.1133 25.0208 73.1133 24.3047C73.1133 23.3021 73.0221 22.2279 72.8398 21.082C72.6576 19.9232 72.332 18.8359 71.8633 17.8203C71.4076 16.7917 70.7695 15.9518 69.9492 15.3008C69.1419 14.6497 68.1003 14.3242 66.8242 14.3242H65.9648V29.5977C65.9648 30.4831 66.1471 31.2122 66.5117 31.7852C66.8893 32.3581 67.5729 32.6445 68.5625 32.6445ZM94.1484 16.375C94.6823 16.375 95.0924 16.5573 95.3789 16.9219C95.6784 17.2865 95.8281 17.7227 95.8281 18.2305V31.1211C95.8281 31.4857 95.8411 31.8568 95.8672 32.2344C95.9062 32.599 96.056 32.918 96.3164 33.1914C96.6549 33.556 96.9349 33.8424 97.1562 34.0508C97.3906 34.2591 97.5078 34.6497 97.5078 35.2227C97.5078 35.7956 97.3255 36.2383 96.9609 36.5508C96.6094 36.8503 96.1536 37 95.5938 37H87.293C86.7331 37 86.2708 36.8503 85.9062 36.5508C85.5547 36.2513 85.3789 35.8086 85.3789 35.2227C85.3789 34.6628 85.4896 34.2721 85.7109 34.0508C85.9323 33.8164 86.2188 33.5299 86.5703 33.1914C86.8307 32.931 86.974 32.6055 87 32.2148C87.0391 31.8242 87.0586 31.4596 87.0586 31.1211V24.3047C87.0586 24.0443 87.0391 23.7773 87 23.5039C86.9609 23.2174 86.8503 22.9766 86.668 22.7812C86.6159 22.7161 86.5508 22.6641 86.4727 22.625C86.4076 22.5859 86.349 22.5404 86.2969 22.4883C86.0104 22.1888 85.7435 21.9479 85.4961 21.7656C85.2617 21.5703 85.1445 21.2318 85.1445 20.75C85.1445 20.2292 85.3073 19.8255 85.6328 19.5391C85.9583 19.2526 86.3424 19.0247 86.7852 18.8555L91.0039 17.1562C91.4987 16.9609 92.013 16.7852 92.5469 16.6289C93.0807 16.4596 93.6146 16.375 94.1484 16.375ZM91.2188 16.2969C90.3854 16.2969 89.5456 16.1732 88.6992 15.9258C87.8529 15.6784 87.1432 15.2682 86.5703 14.6953C86.0104 14.1094 85.7305 13.3216 85.7305 12.332C85.7305 11.3424 86.0169 10.5677 86.5898 10.0078C87.1628 9.4349 87.8724 9.03125 88.7188 8.79688C89.5651 8.5625 90.3984 8.44531 91.2188 8.44531C92.0391 8.44531 92.8724 8.5625 93.7188 8.79688C94.5781 9.03125 95.2943 9.4349 95.8672 10.0078C96.4531 10.5677 96.7461 11.3424 96.7461 12.332C96.7461 13.3346 96.4596 14.1289 95.8867 14.7148C95.3138 15.2878 94.5977 15.6979 93.7383 15.9453C92.8919 16.1797 92.0521 16.2969 91.2188 16.2969ZM121.961 38.5625C121.961 39.6432 121.622 40.5482 120.945 41.2773C120.268 42.0195 119.389 42.6185 118.309 43.0742C117.241 43.5299 116.089 43.875 114.852 44.1094C113.628 44.3438 112.443 44.5 111.297 44.5781C110.164 44.6693 109.214 44.7148 108.445 44.7148C107.924 44.7148 107.26 44.6953 106.453 44.6562C105.659 44.6302 104.826 44.5521 103.953 44.4219C103.081 44.2917 102.26 44.0833 101.492 43.7969C100.737 43.5234 100.118 43.1393 99.6367 42.6445C99.1549 42.1497 98.9141 41.5247 98.9141 40.7695C98.9141 39.832 99.2786 39.0964 100.008 38.5625C100.737 38.0417 101.616 37.651 102.645 37.3906C102.176 37.2083 101.785 36.9479 101.473 36.6094C101.16 36.2578 101.004 35.7891 101.004 35.2031C101.004 34.4219 101.251 33.7969 101.746 33.3281C102.254 32.8594 102.892 32.5078 103.66 32.2734C104.441 32.026 105.236 31.8503 106.043 31.7461C104.884 31.4727 103.797 31.056 102.781 30.4961C101.779 29.9362 100.965 29.1875 100.34 28.25C99.7279 27.3125 99.4219 26.1536 99.4219 24.7734C99.4219 23.2891 99.7083 22.0326 100.281 21.0039C100.867 19.9622 101.648 19.1224 102.625 18.4844C103.602 17.8333 104.695 17.3516 105.906 17.0391C107.13 16.7135 108.38 16.5312 109.656 16.4922C110.06 15.4245 110.542 14.3568 111.102 13.2891C111.674 12.2214 112.397 11.3294 113.27 10.6133C114.155 9.89714 115.249 9.53906 116.551 9.53906C117.618 9.53906 118.497 9.85156 119.188 10.4766C119.891 11.1016 120.242 11.9609 120.242 13.0547C120.242 13.9401 120.021 14.7474 119.578 15.4766C119.148 16.1927 118.432 16.5508 117.43 16.5508C116.727 16.5508 116.186 16.375 115.809 16.0234C115.431 15.6589 115.105 15.2943 114.832 14.9297C114.559 14.5651 114.233 14.3828 113.855 14.3828C113.452 14.3828 113.107 14.6367 112.82 15.1445C112.534 15.6393 112.306 16.1146 112.137 16.5703C113.53 16.7396 114.852 17.1172 116.102 17.7031C117.352 18.276 118.367 19.0898 119.148 20.1445C119.943 21.1992 120.34 22.5273 120.34 24.1289C120.34 25.5482 120.047 26.7721 119.461 27.8008C118.888 28.8164 118.113 29.6497 117.137 30.3008C116.173 30.9518 115.086 31.4336 113.875 31.7461C112.677 32.0456 111.453 32.1953 110.203 32.1953C109.799 32.1953 109.402 32.1823 109.012 32.1562C108.855 32.3125 108.777 32.4688 108.777 32.625C108.777 32.8854 108.966 33.0742 109.344 33.1914C109.734 33.2956 110.197 33.3607 110.73 33.3867C111.264 33.4128 111.766 33.4193 112.234 33.4062C112.716 33.3932 113.048 33.3867 113.23 33.3867C114.168 33.3867 115.145 33.4323 116.16 33.5234C117.176 33.6016 118.12 33.8034 118.992 34.1289C119.878 34.4544 120.594 34.9688 121.141 35.6719C121.688 36.362 121.961 37.3255 121.961 38.5625ZM109.324 19.4805C108.947 19.4805 108.68 19.6367 108.523 19.9492C108.367 20.2617 108.27 20.6198 108.23 21.0234C108.204 21.4271 108.191 21.7591 108.191 22.0195C108.191 22.3711 108.211 22.9375 108.25 23.7188C108.302 24.487 108.4 25.2943 108.543 26.1406C108.686 26.987 108.901 27.7096 109.188 28.3086C109.487 28.8945 109.891 29.1875 110.398 29.1875C110.802 29.1875 111.089 29.0443 111.258 28.7578C111.427 28.4583 111.525 28.1133 111.551 27.7227C111.59 27.332 111.609 26.9935 111.609 26.707C111.609 26.3294 111.59 25.75 111.551 24.9688C111.512 24.1745 111.421 23.3607 111.277 22.5273C111.147 21.681 110.926 20.9648 110.613 20.3789C110.301 19.7799 109.871 19.4805 109.324 19.4805ZM105.926 39.207C105.926 39.6107 106.121 39.9297 106.512 40.1641C106.915 40.3984 107.397 40.5742 107.957 40.6914C108.53 40.8086 109.077 40.8802 109.598 40.9062C110.118 40.9453 110.503 40.9648 110.75 40.9648C111.036 40.9648 111.466 40.9193 112.039 40.8281C112.625 40.75 113.165 40.6003 113.66 40.3789C114.155 40.1576 114.402 39.8385 114.402 39.4219C114.402 38.8359 114.155 38.4258 113.66 38.1914C113.178 37.957 112.632 37.8203 112.02 37.7812C111.408 37.7422 110.9 37.7227 110.496 37.7227C109.897 37.7227 109.298 37.7357 108.699 37.7617C108.1 37.7878 107.501 37.8073 106.902 37.8203C106.629 38.0156 106.395 38.2305 106.199 38.4648C106.017 38.6992 105.926 38.9466 105.926 39.207ZM131.531 16.375C132.065 16.375 132.475 16.5573 132.762 16.9219C133.061 17.2865 133.211 17.7227 133.211 18.2305V31.1211C133.211 31.4857 133.224 31.8568 133.25 32.2344C133.289 32.599 133.439 32.918 133.699 33.1914C134.038 33.556 134.318 33.8424 134.539 34.0508C134.773 34.2591 134.891 34.6497 134.891 35.2227C134.891 35.7956 134.708 36.2383 134.344 36.5508C133.992 36.8503 133.536 37 132.977 37H124.676C124.116 37 123.654 36.8503 123.289 36.5508C122.938 36.2513 122.762 35.8086 122.762 35.2227C122.762 34.6628 122.872 34.2721 123.094 34.0508C123.315 33.8164 123.602 33.5299 123.953 33.1914C124.214 32.931 124.357 32.6055 124.383 32.2148C124.422 31.8242 124.441 31.4596 124.441 31.1211V24.3047C124.441 24.0443 124.422 23.7773 124.383 23.5039C124.344 23.2174 124.233 22.9766 124.051 22.7812C123.999 22.7161 123.934 22.6641 123.855 22.625C123.79 22.5859 123.732 22.5404 123.68 22.4883C123.393 22.1888 123.126 21.9479 122.879 21.7656C122.645 21.5703 122.527 21.2318 122.527 20.75C122.527 20.2292 122.69 19.8255 123.016 19.5391C123.341 19.2526 123.725 19.0247 124.168 18.8555L128.387 17.1562C128.882 16.9609 129.396 16.7852 129.93 16.6289C130.464 16.4596 130.997 16.375 131.531 16.375ZM128.602 16.2969C127.768 16.2969 126.928 16.1732 126.082 15.9258C125.236 15.6784 124.526 15.2682 123.953 14.6953C123.393 14.1094 123.113 13.3216 123.113 12.332C123.113 11.3424 123.4 10.5677 123.973 10.0078C124.546 9.4349 125.255 9.03125 126.102 8.79688C126.948 8.5625 127.781 8.44531 128.602 8.44531C129.422 8.44531 130.255 8.5625 131.102 8.79688C131.961 9.03125 132.677 9.4349 133.25 10.0078C133.836 10.5677 134.129 11.3424 134.129 12.332C134.129 13.3346 133.842 14.1289 133.27 14.7148C132.697 15.2878 131.98 15.6979 131.121 15.9453C130.275 16.1797 129.435 16.2969 128.602 16.2969ZM147.801 22.1562V31.1211C147.801 32.0456 147.924 32.6185 148.172 32.8398C148.432 33.0482 148.999 33.2044 149.871 33.3086C150.561 33.3997 151.108 33.5299 151.512 33.6992C151.915 33.8685 152.117 34.3763 152.117 35.2227C152.117 35.8086 151.941 36.2513 151.59 36.5508C151.238 36.8503 150.776 37 150.203 37H138.191C137.645 37 137.189 36.8568 136.824 36.5703C136.473 36.2708 136.297 35.8346 136.297 35.2617C136.297 34.5977 136.434 34.1419 136.707 33.8945C136.98 33.6471 137.293 33.4583 137.645 33.3281C138.009 33.1849 138.328 32.9635 138.602 32.6641C138.875 32.3646 139.012 31.8242 139.012 31.043V23.5039C139.012 23.0221 138.842 22.6641 138.504 22.4297C138.178 22.1953 137.801 21.987 137.371 21.8047C136.941 21.6094 136.557 21.362 136.219 21.0625C135.893 20.75 135.73 20.2878 135.73 19.6758C135.73 19.1419 135.906 18.7383 136.258 18.4648C136.609 18.1784 137.033 18.0352 137.527 18.0352H139.07V17.8203C139.07 17.7031 138.875 17.4883 138.484 17.1758C138.107 16.8633 137.723 16.4596 137.332 15.9648C136.941 15.4701 136.746 14.9102 136.746 14.2852C136.746 13.1263 137 12.1497 137.508 11.3555C138.029 10.5482 138.706 9.90365 139.539 9.42188C140.385 8.92708 141.31 8.56901 142.312 8.34766C143.315 8.1263 144.305 8.01562 145.281 8.01562C146.167 8.01562 147.078 8.11979 148.016 8.32812C148.953 8.53646 149.826 8.86849 150.633 9.32422C151.453 9.76693 152.111 10.3594 152.605 11.1016C153.113 11.8307 153.367 12.7227 153.367 13.7773C153.367 14.8451 153.068 15.6914 152.469 16.3164C151.87 16.9414 151.03 17.2539 149.949 17.2539C148.816 17.2539 147.905 16.9219 147.215 16.2578C146.538 15.5938 146.199 14.6888 146.199 13.543C146.199 13.1523 146.18 12.7682 146.141 12.3906C146.115 12 145.997 11.681 145.789 11.4336C145.581 11.1732 145.216 11.043 144.695 11.043C144.161 11.043 143.803 11.2253 143.621 11.5898C143.452 11.9414 143.367 12.3451 143.367 12.8008C143.367 13.3216 143.549 13.7904 143.914 14.207C144.292 14.6237 144.721 15.0208 145.203 15.3984C145.698 15.776 146.128 16.1667 146.492 16.5703C146.87 16.9609 147.059 17.3906 147.059 17.8594V18.0352H150.633C151.115 18.0352 151.531 18.1589 151.883 18.4062C152.234 18.6406 152.41 19.0247 152.41 19.5586C152.41 20.3529 152.15 20.9388 151.629 21.3164C151.108 21.681 150.49 21.9154 149.773 22.0195C149.057 22.1107 148.4 22.1562 147.801 22.1562ZM172.566 24.0898C172.566 25.2487 172.221 26.1276 171.531 26.7266C170.854 27.3255 169.956 27.625 168.836 27.625H160.965C161.264 28.7448 161.798 29.6888 162.566 30.457C163.335 31.2122 164.441 31.5898 165.887 31.5898C166.46 31.5898 167.026 31.4727 167.586 31.2383C168.159 30.9909 168.693 30.7044 169.188 30.3789C169.695 30.0534 170.138 29.7734 170.516 29.5391C170.893 29.2917 171.18 29.168 171.375 29.168C171.753 29.168 172.026 29.3047 172.195 29.5781C172.365 29.8385 172.449 30.138 172.449 30.4766C172.449 31.6615 172.169 32.7031 171.609 33.6016C171.062 34.487 170.333 35.2227 169.422 35.8086C168.523 36.3945 167.534 36.8307 166.453 37.1172C165.385 37.4167 164.331 37.5664 163.289 37.5664C161.245 37.5664 159.441 37.1432 157.879 36.2969C156.316 35.4505 155.092 34.2656 154.207 32.7422C153.335 31.2057 152.898 29.4023 152.898 27.332C152.898 25.1185 153.322 23.1914 154.168 21.5508C155.027 19.9102 156.258 18.6406 157.859 17.7422C159.461 16.8307 161.382 16.375 163.621 16.375C165.171 16.375 166.622 16.668 167.977 17.2539C169.344 17.8398 170.451 18.7057 171.297 19.8516C172.143 20.9974 172.566 22.4102 172.566 24.0898ZM160.613 24.6172C160.613 24.7604 160.613 24.9036 160.613 25.0469H162.645C163.139 25.0469 163.478 24.9362 163.66 24.7148C163.842 24.4805 163.934 24.1289 163.934 23.6602C163.934 23.3477 163.895 22.9375 163.816 22.4297C163.738 21.9219 163.582 21.4661 163.348 21.0625C163.126 20.6589 162.801 20.457 162.371 20.457C161.98 20.457 161.668 20.6198 161.434 20.9453C161.199 21.2578 161.023 21.6549 160.906 22.1367C160.789 22.6055 160.711 23.0677 160.672 23.5234C160.633 23.9792 160.613 24.3438 160.613 24.6172ZM183.328 16.375C183.862 16.375 184.266 16.5638 184.539 16.9414C184.826 17.306 184.969 17.7357 184.969 18.2305V20.0273C185.997 19.0768 187.13 18.2305 188.367 17.4883C189.604 16.7461 190.828 16.375 192.039 16.375C193.302 16.375 194.35 16.6875 195.184 17.3125C196.017 17.9375 196.642 18.7513 197.059 19.7539C197.488 20.7565 197.703 21.8372 197.703 22.9961V31.1211C197.703 31.4857 197.716 31.8438 197.742 32.1953C197.781 32.5469 197.924 32.8789 198.172 33.1914C198.471 33.569 198.732 33.862 198.953 34.0703C199.188 34.2786 199.305 34.6628 199.305 35.2227C199.305 35.7956 199.129 36.2383 198.777 36.5508C198.426 36.8503 197.97 37 197.41 37H189.246C188.699 37 188.276 36.8372 187.977 36.5117C187.69 36.1862 187.547 35.7565 187.547 35.2227C187.547 34.7279 187.658 34.3438 187.879 34.0703C188.113 33.7839 188.341 33.4909 188.562 33.1914C188.797 32.8789 188.914 32.4427 188.914 31.8828V25.1055C188.914 24.4935 188.79 23.8945 188.543 23.3086C188.309 22.7227 187.814 22.4297 187.059 22.4297C186.603 22.4297 186.212 22.5208 185.887 22.7031C185.561 22.8724 185.255 23.0938 184.969 23.3672V31.3555C184.969 31.707 184.982 32.0651 185.008 32.4297C185.034 32.7812 185.164 33.1068 185.398 33.4062C185.672 33.7318 185.9 33.9987 186.082 34.207C186.264 34.4023 186.355 34.7409 186.355 35.2227C186.355 35.7565 186.206 36.1862 185.906 36.5117C185.62 36.8372 185.203 37 184.656 37H176.492C175.932 37 175.477 36.8503 175.125 36.5508C174.773 36.2383 174.598 35.7956 174.598 35.2227C174.598 34.793 174.676 34.4609 174.832 34.2266C175.001 33.9792 175.19 33.7513 175.398 33.543C175.607 33.3346 175.789 33.0807 175.945 32.7812C176.115 32.4818 176.199 32.0716 176.199 31.5508V24.3047C176.199 23.7188 176.108 23.276 175.926 22.9766C175.743 22.6771 175.529 22.4427 175.281 22.2734C175.034 22.0911 174.819 21.8958 174.637 21.6875C174.454 21.4792 174.363 21.1667 174.363 20.75C174.363 20.2422 174.533 19.8451 174.871 19.5586C175.21 19.2591 175.587 19.0247 176.004 18.8555L180.223 17.1562C180.717 16.9479 181.219 16.7656 181.727 16.6094C182.247 16.4531 182.781 16.375 183.328 16.375Z" fill="#FFED30"/>
<defs>
<filter id="filter0_di_1548_3845" x="0.818359" y="5.05371" width="46.3633" height="41.8936" filterUnits="userSpaceOnUse" color-interpolation-filters="sRGB">
<feFlood flood-opacity="0" result="BackgroundImageFix"/>
<feColorMatrix in="SourceAlpha" type="matrix" values="0 0 0 0 0 0 0 0 0 0 0 0 0 0 0 0 0 0 127 0" result="hardAlpha"/>
<feOffset dy="4"/>
<feGaussianBlur stdDeviation="2"/>
<feComposite in2="hardAlpha" operator="out"/>
<feColorMatrix type="matrix" values="0 0 0 0 0 0 0 0 0 0 0 0 0 0 0 0 0 0 0.25 0"/>
<feBlend mode="normal" in2="BackgroundImageFix" result="effect1_dropShadow_1548_3845"/>
<feBlend mode="normal" in="SourceGraphic" in2="effect1_dropShadow_1548_3845" result="shape"/>
<feColorMatrix in="SourceAlpha" type="matrix" values="0 0 0 0 0 0 0 0 0 0 0 0 0 0 0 0 0 0 127 0" result="hardAlpha"/>
<feOffset dy="-2"/>
<feGaussianBlur stdDeviation="2"/>
<feComposite in2="hardAlpha" operator="arithmetic" k2="-1" k3="1"/>
<feColorMatrix type="matrix" values="0 0 0 0 0 0 0 0 0 0 0 0 0 0 0 0 0 0 0.25 0"/>
<feBlend mode="normal" in2="shape" result="effect2_innerShadow_1548_3845"/>
</filter>
<filter id="filter1_i_1548_3845" x="19.7988" y="16.375" width="8.54297" height="15.5938" filterUnits="userSpaceOnUse" color-interpolation-filters="sRGB">
<feFlood flood-opacity="0" result="BackgroundImageFix"/>
<feBlend mode="normal" in="SourceGraphic" in2="BackgroundImageFix" result="shape"/>
<feColorMatrix in="SourceAlpha" type="matrix" values="0 0 0 0 0 0 0 0 0 0 0 0 0 0 0 0 0 0 127 0" result="hardAlpha"/>
<feOffset dy="4"/>
<feGaussianBlur stdDeviation="1.5"/>
<feComposite in2="hardAlpha" operator="arithmetic" k2="-1" k3="1"/>
<feColorMatrix type="matrix" values="0 0 0 0 0 0 0 0 0 0 0 0 0 0 0 0 0 0 0.2 0"/>
<feBlend mode="normal" in2="shape" result="effect1_innerShadow_1548_3845"/>
</filter>
</defs>
</svg>
