<svg width="10" height="9" viewBox="0 0 10 9" fill="none" xmlns="http://www.w3.org/2000/svg">
<path d="M2.5 2.38V6.625H4.54L4.84 6.17C5.42 5.275 6.465 4.875 7.235 4.875C7.5 4.875 7.725 4.92 7.895 5C8.35 5.205 8.475 5.59 8.5 5.87C8.54 6.435 8.25 7.015 7.75 7.355C7.3 7.665 6.22 8 4.935 8C4.06 8 2.805 7.845 1.56 7.15C1.705 5.925 2 3.94 2.5 2.38ZM2.5 0C1 2.045 0.5 7.67 0.5 7.67C1.95 8.655 3.54 9 4.935 9C6.43 9 7.695 8.605 8.32 8.18C9.82 7.16 9.97 4.855 8.32 4.09C8 3.945 7.63 3.875 7.235 3.875C6.085 3.875 4.75 4.48 4 5.625H3.5V2.045H4.5L5 0.5L2.5 0Z" fill="#0F100F"/>
</svg>
